# Blender v2.79 (sub 0) OBJ File: 'Bench_2.blend'
# www.blender.org
mtllib Bench_2.mtl
o Bench_2_Cube.258
v 0.329469 0.175775 -0.034760
v 0.329469 0.175775 -0.056769
v 0.329155 -0.001346 -0.038694
v 0.329155 -0.001346 -0.063711
v 0.294251 -0.001346 -0.063711
v 0.294251 -0.001346 -0.038694
v 0.293936 0.175775 -0.034760
v 0.293936 0.175775 -0.056769
v 0.329469 0.178053 0.110711
v 0.329469 0.177241 0.132611
v 0.329155 -0.001346 0.112889
v 0.329155 -0.001346 0.138174
v 0.294251 -0.001346 0.138174
v 0.294251 -0.001346 0.112889
v 0.293936 0.178053 0.110711
v 0.293936 0.177241 0.132611
v 0.332486 0.184301 0.140641
v 0.332486 0.171970 0.140641
v 0.290920 0.184301 0.140641
v 0.290920 0.171970 0.140641
v 0.332486 0.171970 -0.081282
v 0.332486 0.184301 -0.081282
v 0.290920 0.171970 -0.081282
v 0.290920 0.184301 -0.081282
v 0.295623 0.184301 0.048135
v 0.295623 0.171970 0.048135
v 0.332486 0.184301 0.048527
v 0.332486 0.171970 0.048527
v 0.288176 0.184301 0.018009
v 0.332486 0.184301 0.028592
v 0.332486 0.171970 0.028592
v 0.288176 0.171970 0.018009
v -0.329469 0.175775 -0.034760
v -0.329469 0.175775 -0.056769
v -0.329155 -0.001346 -0.038694
v -0.329155 -0.001346 -0.063711
v -0.294251 -0.001346 -0.063711
v -0.294251 -0.001346 -0.038694
v -0.293936 0.175775 -0.034760
v -0.293936 0.175775 -0.056769
v -0.329469 0.178053 0.110711
v -0.329469 0.177241 0.132611
v -0.329155 -0.001346 0.112889
v -0.329155 -0.001346 0.138174
v -0.294251 -0.001346 0.138174
v -0.294251 -0.001346 0.112889
v -0.293936 0.178053 0.110711
v -0.293936 0.177241 0.132611
v -0.332486 0.184301 0.140641
v -0.332486 0.171970 0.140641
v -0.290920 0.184301 0.140641
v -0.290920 0.171970 0.140641
v -0.332486 0.171970 -0.081282
v -0.332486 0.184301 -0.081282
v -0.290920 0.171970 -0.081282
v -0.290920 0.184301 -0.081282
v -0.295623 0.184301 0.048135
v -0.295623 0.171970 0.048135
v -0.332486 0.184301 0.048527
v -0.332486 0.171970 0.048527
v -0.288176 0.184301 0.018009
v -0.332486 0.184301 0.028592
v -0.332486 0.171970 0.028592
v -0.288176 0.171970 0.018009
v 0.324324 0.127784 0.038231
v 0.324324 0.143018 0.038231
v 0.324324 0.127784 0.112471
v 0.324324 0.143018 0.112471
v -0.324324 0.127784 0.038231
v -0.324324 0.143018 0.038231
v -0.324324 0.127784 0.112470
v -0.324324 0.143018 0.112470
v 0.193109 0.127784 0.118235
v 0.193109 0.143018 0.118235
v 0.193109 0.127784 0.043996
v 0.193109 0.143018 0.043996
v -0.115016 0.143018 0.109824
v -0.115016 0.127784 0.035585
v -0.115016 0.127784 0.109824
v -0.115016 0.143018 0.035585
v 0.181562 0.127784 0.108816
v 0.179915 0.143018 0.043635
v 0.181562 0.143018 0.108816
v 0.179915 0.127784 0.043635
v -0.105954 0.143018 0.109794
v -0.099416 0.127784 0.042419
v -0.105954 0.127784 0.109794
v -0.099416 0.143018 0.042419
v 0.155123 0.127784 0.120435
v 0.153623 0.143018 0.042918
v 0.155123 0.143018 0.120435
v 0.153623 0.127784 0.042918
v -0.220494 0.143018 0.101232
v -0.219670 0.127784 0.036908
v -0.220494 0.127784 0.106206
v -0.219670 0.143018 0.036908
v -0.324324 0.127784 0.032395
v -0.324324 0.145456 0.032395
v -0.324324 0.127784 -0.037731
v -0.324324 0.145456 -0.037731
v 0.324324 0.127784 0.032395
v 0.324324 0.145456 0.032395
v 0.324324 0.127784 -0.037731
v 0.324324 0.145456 -0.037731
v -0.193109 0.127784 -0.043495
v -0.193109 0.145456 -0.038356
v -0.193109 0.127784 0.026631
v -0.193109 0.145456 0.026631
v 0.115016 0.145456 -0.035085
v 0.115016 0.127784 0.035041
v 0.115016 0.127784 -0.035085
v 0.115016 0.145456 0.035041
v -0.181562 0.127784 -0.034076
v -0.179915 0.145456 0.026991
v -0.181562 0.145456 -0.034076
v -0.179915 0.127784 0.026991
v 0.105954 0.145456 -0.035054
v 0.099416 0.127784 0.028207
v 0.105954 0.127784 -0.035054
v 0.099416 0.145456 0.028207
v -0.155123 0.127784 -0.045696
v -0.153623 0.145456 0.027708
v -0.155123 0.145456 -0.045696
v -0.153623 0.127784 0.027708
v 0.220494 0.145456 -0.031467
v 0.219670 0.127784 0.033718
v 0.220494 0.127784 -0.031467
v 0.219670 0.145456 0.033718
v 0.332486 0.087214 0.140641
v 0.332486 0.074883 0.140641
v 0.290920 0.087214 0.140641
v 0.290920 0.074883 0.140641
v 0.332486 0.074883 -0.081282
v 0.332486 0.087214 -0.081282
v 0.290920 0.074883 -0.081282
v 0.290920 0.087214 -0.081282
v 0.295623 0.087214 0.048135
v 0.295623 0.074883 0.048135
v 0.332486 0.087214 0.048527
v 0.332486 0.074883 0.048527
v 0.288176 0.087214 0.018009
v 0.332486 0.087214 0.028592
v 0.332486 0.074883 0.028592
v 0.288176 0.074883 0.018009
v -0.332486 0.087214 0.140641
v -0.332486 0.074883 0.140641
v -0.290920 0.087214 0.140641
v -0.290920 0.074883 0.140641
v -0.332486 0.074883 -0.081282
v -0.332486 0.087214 -0.081282
v -0.290920 0.074883 -0.081282
v -0.290920 0.087214 -0.081282
v -0.295623 0.087214 0.048135
v -0.295623 0.074883 0.048135
v -0.332486 0.087214 0.048527
v -0.332486 0.074883 0.048527
v -0.288176 0.087214 0.018009
v -0.332486 0.087214 0.028592
v -0.332486 0.074883 0.028592
v -0.288176 0.074883 0.018009
vn 1.0000 -0.0018 0.0000
vn -1.0000 -0.0018 0.0000
vn 0.0000 1.0000 -0.0000
vn 0.0000 -0.0222 0.9998
vn 0.0000 0.0392 -0.9992
vn 0.0000 -1.0000 -0.0000
vn 0.0000 -0.0121 -0.9999
vn 0.0000 0.0311 0.9995
vn 0.0000 -0.0000 1.0000
vn 0.0000 0.0000 -1.0000
vn -0.9996 0.0000 -0.0276
vn 1.0000 0.0000 0.0000
vn -0.9987 0.0000 -0.0508
vn -0.9708 0.0000 0.2400
vn 0.9996 0.0000 -0.0276
vn -1.0000 0.0000 0.0000
vn 0.9987 0.0000 -0.0508
vn 0.9708 0.0000 0.2400
vn 0.0829 0.1606 0.9835
vn -0.0439 0.0000 -0.9990
vn 0.0273 0.0000 -0.9996
vn 0.0439 -0.0000 0.9990
vn -0.0126 -0.0000 -0.9999
vn 0.0034 -0.0000 1.0000
vn -0.6321 0.0000 0.7749
vn 0.4013 0.0000 -0.9160
vn -0.0407 -0.0000 0.9992
vn 0.4023 0.0000 0.9155
vn 0.0020 0.0000 -1.0000
vn -0.0570 0.1609 0.9853
vn -0.0602 0.0000 -0.9982
vn -0.0273 0.0000 0.9996
vn -0.0241 0.1439 -0.9893
vn 0.0126 0.0000 0.9999
vn -0.0034 -0.0000 -1.0000
vn 0.5062 0.1241 -0.8534
vn -0.4013 -0.0000 0.9160
vn 0.0407 -0.0000 -0.9992
vn -0.4023 0.0000 -0.9155
vn -0.0020 0.0000 1.0000
vn 0.0343 0.0000 -0.9994
usemtl Wood
s off
f 3//1 4//1 2//1 1//1
f 6//2 7//2 8//2 5//2
f 2//3 8//3 7//3 1//3
f 1//4 7//4 6//4 3//4
f 4//5 5//5 8//5 2//5
f 3//6 6//6 5//6 4//6
f 11//1 9//1 10//1 12//1
f 14//2 13//2 16//2 15//2
f 9//7 11//7 14//7 15//7
f 12//8 10//8 16//8 13//8
f 11//6 12//6 13//6 14//6
f 18//9 17//9 19//9 20//9
f 21//10 23//10 24//10 22//10
f 32//11 29//11 24//11 23//11
f 29//3 30//3 22//3 24//3
f 30//12 31//12 21//12 22//12
f 31//6 32//6 23//6 21//6
f 18//6 20//6 26//6 28//6
f 17//12 18//12 28//12 27//12
f 19//3 17//3 27//3 25//3
f 20//13 19//13 25//13 26//13
f 28//6 26//6 32//6 31//6
f 27//12 28//12 31//12 30//12
f 25//3 27//3 30//3 29//3
f 26//14 25//14 29//14 32//14
f 35//2 33//2 34//2 36//2
f 38//1 37//1 40//1 39//1
f 34//3 33//3 39//3 40//3
f 33//4 35//4 38//4 39//4
f 36//5 34//5 40//5 37//5
f 35//6 36//6 37//6 38//6
f 43//2 44//2 42//2 41//2
f 46//1 47//1 48//1 45//1
f 41//7 47//7 46//7 43//7
f 44//8 45//8 48//8 42//8
f 43//6 46//6 45//6 44//6
f 50//9 52//9 51//9 49//9
f 53//10 54//10 56//10 55//10
f 64//15 55//15 56//15 61//15
f 61//3 56//3 54//3 62//3
f 62//16 54//16 53//16 63//16
f 63//6 53//6 55//6 64//6
f 50//6 60//6 58//6 52//6
f 49//16 59//16 60//16 50//16
f 51//3 57//3 59//3 49//3
f 52//17 58//17 57//17 51//17
f 60//6 63//6 64//6 58//6
f 59//16 62//16 63//16 60//16
f 57//3 61//3 62//3 59//3
f 58//18 64//18 61//18 57//18
f 65//12 66//12 68//12 67//12
f 95//19 93//19 72//19 71//19
f 71//16 72//16 70//16 69//16
f 75//20 76//20 66//20 65//20
f 95//6 71//6 69//6 94//6
f 74//3 68//3 66//3 76//3
f 83//3 74//3 76//3 82//3
f 67//6 73//6 75//6 65//6
f 84//21 82//21 76//21 75//21
f 67//22 68//22 74//22 73//22
f 94//23 96//23 80//23 78//23
f 93//3 77//3 80//3 96//3
f 87//6 79//6 78//6 86//6
f 87//24 85//24 77//24 79//24
f 73//25 74//25 83//25 81//25
f 73//6 81//6 84//6 75//6
f 92//21 90//21 82//21 84//21
f 91//3 83//3 82//3 90//3
f 77//3 85//3 88//3 80//3
f 78//26 80//26 88//26 86//26
f 89//27 91//27 85//27 87//27
f 89//6 87//6 86//6 92//6
f 81//6 89//6 92//6 84//6
f 81//28 83//28 91//28 89//28
f 85//3 91//3 90//3 88//3
f 86//29 88//29 90//29 92//29
f 72//3 93//3 96//3 70//3
f 69//23 70//23 96//23 94//23
f 79//6 95//6 94//6 78//6
f 79//30 77//30 93//30 95//30
f 97//16 98//16 100//16 99//16
f 127//31 125//31 104//31 103//31
f 103//12 104//12 102//12 101//12
f 107//22 108//22 98//22 97//22
f 127//6 103//6 101//6 126//6
f 106//3 100//3 98//3 108//3
f 115//3 106//3 108//3 114//3
f 99//6 105//6 107//6 97//6
f 116//32 114//32 108//32 107//32
f 99//33 100//33 106//33 105//33
f 126//34 128//34 112//34 110//34
f 125//3 109//3 112//3 128//3
f 119//6 111//6 110//6 118//6
f 119//35 117//35 109//35 111//35
f 105//36 106//36 115//36 113//36
f 105//6 113//6 116//6 107//6
f 124//32 122//32 114//32 116//32
f 123//3 115//3 114//3 122//3
f 109//3 117//3 120//3 112//3
f 110//37 112//37 120//37 118//37
f 121//38 123//38 117//38 119//38
f 121//6 119//6 118//6 124//6
f 113//6 121//6 124//6 116//6
f 113//39 115//39 123//39 121//39
f 117//3 123//3 122//3 120//3
f 118//40 120//40 122//40 124//40
f 104//3 125//3 128//3 102//3
f 101//34 102//34 128//34 126//34
f 111//6 127//6 126//6 110//6
f 111//41 109//41 125//41 127//41
f 130//9 129//9 131//9 132//9
f 133//10 135//10 136//10 134//10
f 144//11 141//11 136//11 135//11
f 141//3 142//3 134//3 136//3
f 142//12 143//12 133//12 134//12
f 143//6 144//6 135//6 133//6
f 130//6 132//6 138//6 140//6
f 129//12 130//12 140//12 139//12
f 131//3 129//3 139//3 137//3
f 132//13 131//13 137//13 138//13
f 140//6 138//6 144//6 143//6
f 139//12 140//12 143//12 142//12
f 137//3 139//3 142//3 141//3
f 138//14 137//14 141//14 144//14
f 146//9 148//9 147//9 145//9
f 149//10 150//10 152//10 151//10
f 160//15 151//15 152//15 157//15
f 157//3 152//3 150//3 158//3
f 158//16 150//16 149//16 159//16
f 159//6 149//6 151//6 160//6
f 146//6 156//6 154//6 148//6
f 145//16 155//16 156//16 146//16
f 147//3 153//3 155//3 145//3
f 148//17 154//17 153//17 147//17
f 156//6 159//6 160//6 154//6
f 155//16 158//16 159//16 156//16
f 153//3 157//3 158//3 155//3
f 154//18 160//18 157//18 153//18
