# Blender v2.79 (sub 0) OBJ File: 'Bench_1.blend'
# www.blender.org
mtllib Bench_1.mtl
o Bench_1_Cube.240
v -0.324324 0.302434 0.142013
v -0.324324 0.298932 0.154130
v -0.324324 0.235066 0.122540
v -0.324324 0.231563 0.134657
v 0.324324 0.302434 0.142013
v 0.324324 0.298932 0.154130
v 0.324324 0.235066 0.122540
v 0.324324 0.231563 0.134657
v -0.098997 0.239246 0.123781
v -0.098962 0.240681 0.137325
v -0.098521 0.306612 0.143253
v -0.098521 0.303110 0.155370
v 0.103962 0.225932 0.133029
v 0.105089 0.304136 0.142505
v 0.103962 0.229434 0.120913
v 0.105089 0.300634 0.154622
v -0.087386 0.248219 0.126375
v -0.085324 0.303370 0.155445
v -0.087386 0.244716 0.138492
v -0.085324 0.306872 0.143329
v 0.095015 0.227315 0.133429
v 0.098395 0.291828 0.138948
v 0.095015 0.230817 0.121312
v 0.098395 0.288326 0.151064
v -0.078661 0.237342 0.123231
v -0.059028 0.303888 0.155595
v -0.078661 0.233839 0.135348
v -0.059028 0.307390 0.143478
v 0.215004 0.225714 0.132966
v 0.214180 0.291838 0.138950
v 0.215004 0.229216 0.120850
v 0.214180 0.288335 0.151067
v 0.329469 0.187579 -0.034760
v 0.329469 0.187579 -0.056769
v 0.329155 -0.001346 -0.038694
v 0.329155 -0.001346 -0.063711
v 0.294251 -0.001346 -0.063711
v 0.294251 -0.001346 -0.038694
v 0.293936 0.187579 -0.034760
v 0.293936 0.187579 -0.056769
v 0.329469 0.190241 0.110711
v 0.329469 0.188052 0.132611
v 0.329155 -0.001346 0.112889
v 0.329155 -0.001346 0.138174
v 0.294251 -0.001346 0.138174
v 0.294251 -0.001346 0.112889
v 0.293936 0.190241 0.110711
v 0.293936 0.188052 0.132611
v 0.329469 0.255487 0.144560
v 0.329469 0.265820 0.125128
v 0.293936 0.255487 0.144560
v 0.293936 0.265820 0.125128
v 0.329469 0.311056 0.161136
v 0.329469 0.314485 0.139395
v 0.293936 0.311056 0.161136
v 0.293936 0.314485 0.139395
v 0.332486 0.206485 0.140641
v 0.332486 0.188323 0.140641
v 0.290920 0.206485 0.140641
v 0.290920 0.188323 0.140641
v 0.332486 0.188323 -0.081282
v 0.332486 0.206485 -0.081282
v 0.290920 0.188323 -0.081282
v 0.290920 0.206485 -0.081282
v 0.295623 0.206485 0.048135
v 0.295623 0.188323 0.048135
v 0.332486 0.206485 0.048527
v 0.332486 0.188323 0.048527
v 0.288176 0.206485 0.018009
v 0.332486 0.206485 0.028592
v 0.332486 0.188323 0.028592
v 0.288176 0.188323 0.018009
v -0.329469 0.187579 -0.034760
v -0.329469 0.187579 -0.056769
v -0.329155 -0.001346 -0.038694
v -0.329155 -0.001346 -0.063711
v -0.294251 -0.001346 -0.063711
v -0.294251 -0.001346 -0.038694
v -0.293936 0.187579 -0.034760
v -0.293936 0.187579 -0.056769
v -0.329469 0.190241 0.110711
v -0.329469 0.188052 0.132611
v -0.329155 -0.001346 0.112889
v -0.329155 -0.001346 0.138174
v -0.294251 -0.001346 0.138174
v -0.294251 -0.001346 0.112889
v -0.293936 0.190241 0.110711
v -0.293936 0.188052 0.132611
v -0.329469 0.255487 0.144560
v -0.329469 0.265820 0.125128
v -0.293936 0.255487 0.144560
v -0.293936 0.265820 0.125128
v -0.329469 0.311056 0.161136
v -0.329469 0.314485 0.139395
v -0.293936 0.311056 0.161136
v -0.293936 0.314485 0.139395
v -0.332486 0.206485 0.140641
v -0.332486 0.188323 0.140641
v -0.290920 0.206485 0.140641
v -0.290920 0.188323 0.140641
v -0.332486 0.188323 -0.081282
v -0.332486 0.206485 -0.081282
v -0.290920 0.188323 -0.081282
v -0.290920 0.206485 -0.081282
v -0.295623 0.206485 0.048135
v -0.295623 0.188323 0.048135
v -0.332486 0.206485 0.048527
v -0.332486 0.188323 0.048527
v -0.288176 0.206485 0.018009
v -0.332486 0.206485 0.028592
v -0.332486 0.188323 0.028592
v -0.288176 0.188323 0.018009
v -0.324324 0.153079 0.114326
v -0.324324 0.151853 0.126879
v -0.324324 0.222873 0.121147
v -0.324324 0.221646 0.133700
v 0.324324 0.153079 0.114326
v 0.324324 0.151853 0.126879
v 0.324324 0.222873 0.121147
v 0.324324 0.221646 0.133700
v -0.193109 0.228610 0.121708
v -0.193109 0.222269 0.133761
v -0.193109 0.158817 0.114887
v -0.193109 0.157590 0.127440
v 0.115016 0.219013 0.133443
v 0.115016 0.150446 0.114069
v 0.115016 0.220239 0.120889
v 0.115016 0.149219 0.126622
v -0.181562 0.219236 0.120791
v -0.179915 0.157231 0.127405
v -0.181562 0.218009 0.133345
v -0.179915 0.158458 0.114852
v 0.105954 0.218982 0.133440
v 0.099416 0.157248 0.114734
v 0.105954 0.220209 0.120887
v 0.099416 0.156021 0.127287
v -0.155123 0.230800 0.121922
v -0.153623 0.156517 0.127335
v -0.155123 0.229573 0.134475
v -0.153623 0.157744 0.114782
v 0.220494 0.215412 0.133091
v 0.219670 0.151763 0.114198
v 0.220494 0.216638 0.120538
v 0.219670 0.150536 0.126751
v 0.324324 0.127784 0.038231
v 0.324324 0.143018 0.038231
v 0.324324 0.127784 0.108357
v 0.324324 0.143018 0.108357
v -0.324324 0.127784 0.038231
v -0.324324 0.143018 0.038231
v -0.324324 0.127784 0.108357
v -0.324324 0.143018 0.108357
v 0.193109 0.127784 0.114122
v 0.193109 0.143018 0.114122
v 0.193109 0.127784 0.043996
v 0.193109 0.143018 0.043996
v -0.115016 0.143018 0.105711
v -0.115016 0.127784 0.035585
v -0.115016 0.127784 0.105711
v -0.115016 0.143018 0.035585
v 0.181562 0.127784 0.104703
v 0.179915 0.143018 0.043635
v 0.181562 0.143018 0.104703
v 0.179915 0.127784 0.043635
v -0.105954 0.143018 0.105680
v -0.099416 0.127784 0.042419
v -0.105954 0.127784 0.105680
v -0.099416 0.143018 0.042419
v 0.155123 0.127784 0.116322
v 0.153623 0.143018 0.042918
v 0.155123 0.143018 0.116322
v 0.153623 0.127784 0.042918
v -0.220494 0.143018 0.097118
v -0.219670 0.127784 0.036908
v -0.220494 0.127784 0.102093
v -0.219670 0.143018 0.036908
v -0.324324 0.127784 0.032395
v -0.324324 0.145456 0.032395
v -0.324324 0.127784 -0.037731
v -0.324324 0.145456 -0.037731
v 0.324324 0.127784 0.032395
v 0.324324 0.145456 0.032395
v 0.324324 0.127784 -0.037731
v 0.324324 0.145456 -0.037731
v -0.193109 0.127784 -0.043495
v -0.193109 0.145456 -0.038356
v -0.193109 0.127784 0.026631
v -0.193109 0.145456 0.026631
v 0.115016 0.145456 -0.035085
v 0.115016 0.127784 0.035041
v 0.115016 0.127784 -0.035085
v 0.115016 0.145456 0.035041
v -0.181562 0.127784 -0.034076
v -0.179915 0.145456 0.026991
v -0.181562 0.145456 -0.034076
v -0.179915 0.127784 0.026991
v 0.105954 0.145456 -0.035054
v 0.099416 0.127784 0.028207
v 0.105954 0.127784 -0.035054
v 0.099416 0.145456 0.028207
v -0.155123 0.127784 -0.045696
v -0.153623 0.145456 0.027708
v -0.155123 0.145456 -0.045696
v -0.153623 0.127784 0.027708
v 0.220494 0.145456 -0.031467
v 0.219670 0.127784 0.033718
v 0.220494 0.127784 -0.031467
v 0.219670 0.145456 0.033718
vn -1.0000 -0.0000 0.0000
vn 0.0556 -0.9592 -0.2773
vn 1.0000 0.0000 0.0000
vn -0.0193 0.9605 0.2776
vn -0.0000 0.2777 -0.9607
vn -0.0001 -0.2777 0.9607
vn 0.0000 -0.2777 0.9607
vn 0.0001 0.2777 -0.9607
vn -0.0205 0.9605 0.2776
vn 0.0301 -0.9963 -0.0803
vn 0.1165 0.9541 0.2758
vn -0.1589 -0.9485 -0.2742
vn 0.4967 -0.8651 -0.0704
vn -0.8863 0.4449 0.1286
vn -0.0391 -0.9599 -0.2775
vn -0.0002 0.2777 -0.9607
vn -0.7921 -0.5864 -0.1695
vn 0.0002 -0.2777 0.9607
vn 0.1024 0.9556 0.2762
vn -0.0996 0.9559 0.2763
vn -0.0020 -0.9607 -0.2777
vn 1.0000 -0.0017 0.0000
vn -1.0000 -0.0017 0.0000
vn 0.0000 1.0000 -0.0000
vn 0.0000 -0.0208 0.9998
vn 0.0000 0.0367 -0.9993
vn 0.0000 -1.0000 -0.0000
vn 1.0000 -0.0017 -0.0001
vn -1.0000 -0.0017 -0.0001
vn 0.0000 -0.0114 -0.9999
vn 0.0000 0.0294 0.9996
vn 0.0000 0.2813 -0.9596
vn 0.0000 0.1874 -0.9823
vn 0.0000 -0.1745 0.9847
vn 0.0000 0.9878 0.1558
vn 0.0000 -0.2858 0.9583
vn 0.0000 -0.0000 1.0000
vn 0.0000 0.0000 -1.0000
vn -0.9996 0.0000 -0.0276
vn -0.9987 0.0000 -0.0508
vn -0.9708 0.0000 0.2400
vn 0.9996 0.0000 -0.0276
vn 0.9987 0.0000 -0.0508
vn 0.9708 0.0000 0.2400
vn -0.0602 0.9935 0.0971
vn 0.0439 -0.9943 -0.0972
vn 0.0000 0.0973 -0.9953
vn -0.0000 -0.0973 0.9953
vn -0.0273 -0.9949 -0.0972
vn -0.0239 0.9555 0.2939
vn 0.0126 -0.9952 -0.0973
vn -0.0034 0.9953 0.0973
vn 0.5025 0.8264 0.2542
vn -0.4013 -0.9116 -0.0891
vn 0.0407 0.9944 0.0972
vn -0.4023 0.9111 0.0890
vn -0.0020 -0.9953 -0.0973
vn 0.0343 0.9947 0.0972
vn 0.0829 0.1606 0.9835
vn -0.0439 0.0000 -0.9990
vn 0.0273 0.0000 -0.9996
vn 0.0439 -0.0000 0.9990
vn -0.0126 -0.0000 -0.9999
vn 0.0034 -0.0000 1.0000
vn -0.6321 0.0000 0.7749
vn 0.4013 0.0000 -0.9160
vn -0.0407 -0.0000 0.9992
vn 0.4023 0.0000 0.9155
vn 0.0020 0.0000 -1.0000
vn -0.0570 0.1609 0.9853
vn -0.0602 0.0000 -0.9982
vn -0.0273 0.0000 0.9996
vn -0.0241 0.1439 -0.9893
vn 0.0126 0.0000 0.9999
vn -0.0034 -0.0000 -1.0000
vn 0.5062 0.1241 -0.8534
vn -0.4013 -0.0000 0.9160
vn 0.0407 -0.0000 -0.9992
vn -0.4023 0.0000 -0.9155
vn -0.0020 0.0000 1.0000
vn 0.0343 0.0000 -0.9994
usemtl Wood
s off
f 1//1 3//1 4//1 2//1
f 31//2 7//2 8//2 29//2
f 7//3 5//3 6//3 8//3
f 11//4 1//4 2//4 12//4
f 31//5 30//5 5//5 7//5
f 10//6 12//6 2//6 4//6
f 19//7 18//7 12//7 10//7
f 3//8 1//8 11//8 9//8
f 20//9 11//9 12//9 18//9
f 3//10 9//10 10//10 4//10
f 30//11 14//11 16//11 32//11
f 29//7 32//7 16//7 13//7
f 23//5 22//5 14//5 15//5
f 23//12 15//12 13//12 21//12
f 9//13 17//13 19//13 10//13
f 9//5 11//5 20//5 17//5
f 28//9 20//9 18//9 26//9
f 27//7 26//7 18//7 19//7
f 13//7 16//7 24//7 21//7
f 14//14 22//14 24//14 16//14
f 25//15 23//15 21//15 27//15
f 25//16 28//16 22//16 23//16
f 17//5 20//5 28//5 25//5
f 17//17 25//17 27//17 19//17
f 21//18 24//18 26//18 27//18
f 22//19 28//19 26//19 24//19
f 8//7 6//7 32//7 29//7
f 5//20 30//20 32//20 6//20
f 15//5 14//5 30//5 31//5
f 15//21 31//21 29//21 13//21
f 35//22 36//22 34//22 33//22
f 38//23 39//23 40//23 37//23
f 34//24 40//24 39//24 33//24
f 33//25 39//25 38//25 35//25
f 36//26 37//26 40//26 34//26
f 35//27 38//27 37//27 36//27
f 43//28 41//28 42//28 44//28
f 46//29 45//29 48//29 47//29
f 48//1 51//1 52//1 47//1
f 41//30 43//30 46//30 47//30
f 44//31 42//31 48//31 45//31
f 43//27 44//27 45//27 46//27
f 52//32 56//32 54//32 50//32
f 41//3 50//3 49//3 42//3
f 47//33 52//33 50//33 41//33
f 42//34 49//34 51//34 48//34
f 53//35 54//35 56//35 55//35
f 50//3 54//3 53//3 49//3
f 49//36 53//36 55//36 51//36
f 51//1 55//1 56//1 52//1
f 58//37 57//37 59//37 60//37
f 61//38 63//38 64//38 62//38
f 72//39 69//39 64//39 63//39
f 69//24 70//24 62//24 64//24
f 70//3 71//3 61//3 62//3
f 71//27 72//27 63//27 61//27
f 58//27 60//27 66//27 68//27
f 57//3 58//3 68//3 67//3
f 59//24 57//24 67//24 65//24
f 60//40 59//40 65//40 66//40
f 68//27 66//27 72//27 71//27
f 67//3 68//3 71//3 70//3
f 65//24 67//24 70//24 69//24
f 66//41 65//41 69//41 72//41
f 75//23 73//23 74//23 76//23
f 78//22 77//22 80//22 79//22
f 74//24 73//24 79//24 80//24
f 73//25 75//25 78//25 79//25
f 76//26 74//26 80//26 77//26
f 75//27 76//27 77//27 78//27
f 83//29 84//29 82//29 81//29
f 86//28 87//28 88//28 85//28
f 88//3 87//3 92//3 91//3
f 81//30 87//30 86//30 83//30
f 84//31 85//31 88//31 82//31
f 83//27 86//27 85//27 84//27
f 92//32 90//32 94//32 96//32
f 81//1 82//1 89//1 90//1
f 87//33 81//33 90//33 92//33
f 82//34 88//34 91//34 89//34
f 93//35 95//35 96//35 94//35
f 90//1 89//1 93//1 94//1
f 89//36 91//36 95//36 93//36
f 91//3 92//3 96//3 95//3
f 98//37 100//37 99//37 97//37
f 101//38 102//38 104//38 103//38
f 112//42 103//42 104//42 109//42
f 109//24 104//24 102//24 110//24
f 110//1 102//1 101//1 111//1
f 111//27 101//27 103//27 112//27
f 98//27 108//27 106//27 100//27
f 97//1 107//1 108//1 98//1
f 99//24 105//24 107//24 97//24
f 100//43 106//43 105//43 99//43
f 108//27 111//27 112//27 106//27
f 107//1 110//1 111//1 108//1
f 105//24 109//24 110//24 107//24
f 106//44 112//44 109//44 105//44
f 113//1 114//1 116//1 115//1
f 143//45 141//45 120//45 119//45
f 119//3 120//3 118//3 117//3
f 123//46 124//46 114//46 113//46
f 143//47 119//47 117//47 142//47
f 122//48 116//48 114//48 124//48
f 131//48 122//48 124//48 130//48
f 115//47 121//47 123//47 113//47
f 132//49 130//49 124//49 123//49
f 115//50 116//50 122//50 121//50
f 142//51 144//51 128//51 126//51
f 141//48 125//48 128//48 144//48
f 135//47 127//47 126//47 134//47
f 135//52 133//52 125//52 127//52
f 121//53 122//53 131//53 129//53
f 121//47 129//47 132//47 123//47
f 140//49 138//49 130//49 132//49
f 139//48 131//48 130//48 138//48
f 125//48 133//48 136//48 128//48
f 126//54 128//54 136//54 134//54
f 137//55 139//55 133//55 135//55
f 137//47 135//47 134//47 140//47
f 129//47 137//47 140//47 132//47
f 129//56 131//56 139//56 137//56
f 133//48 139//48 138//48 136//48
f 134//57 136//57 138//57 140//57
f 120//48 141//48 144//48 118//48
f 117//51 118//51 144//51 142//51
f 127//47 143//47 142//47 126//47
f 127//58 125//58 141//58 143//58
f 145//3 146//3 148//3 147//3
f 175//59 173//59 152//59 151//59
f 151//1 152//1 150//1 149//1
f 155//60 156//60 146//60 145//60
f 175//27 151//27 149//27 174//27
f 154//24 148//24 146//24 156//24
f 163//24 154//24 156//24 162//24
f 147//27 153//27 155//27 145//27
f 164//61 162//61 156//61 155//61
f 147//62 148//62 154//62 153//62
f 174//63 176//63 160//63 158//63
f 173//24 157//24 160//24 176//24
f 167//27 159//27 158//27 166//27
f 167//64 165//64 157//64 159//64
f 153//65 154//65 163//65 161//65
f 153//27 161//27 164//27 155//27
f 172//61 170//61 162//61 164//61
f 171//24 163//24 162//24 170//24
f 157//24 165//24 168//24 160//24
f 158//66 160//66 168//66 166//66
f 169//67 171//67 165//67 167//67
f 169//27 167//27 166//27 172//27
f 161//27 169//27 172//27 164//27
f 161//68 163//68 171//68 169//68
f 165//24 171//24 170//24 168//24
f 166//69 168//69 170//69 172//69
f 152//24 173//24 176//24 150//24
f 149//63 150//63 176//63 174//63
f 159//27 175//27 174//27 158//27
f 159//70 157//70 173//70 175//70
f 177//1 178//1 180//1 179//1
f 207//71 205//71 184//71 183//71
f 183//3 184//3 182//3 181//3
f 187//62 188//62 178//62 177//62
f 207//27 183//27 181//27 206//27
f 186//24 180//24 178//24 188//24
f 195//24 186//24 188//24 194//24
f 179//27 185//27 187//27 177//27
f 196//72 194//72 188//72 187//72
f 179//73 180//73 186//73 185//73
f 206//74 208//74 192//74 190//74
f 205//24 189//24 192//24 208//24
f 199//27 191//27 190//27 198//27
f 199//75 197//75 189//75 191//75
f 185//76 186//76 195//76 193//76
f 185//27 193//27 196//27 187//27
f 204//72 202//72 194//72 196//72
f 203//24 195//24 194//24 202//24
f 189//24 197//24 200//24 192//24
f 190//77 192//77 200//77 198//77
f 201//78 203//78 197//78 199//78
f 201//27 199//27 198//27 204//27
f 193//27 201//27 204//27 196//27
f 193//79 195//79 203//79 201//79
f 197//24 203//24 202//24 200//24
f 198//80 200//80 202//80 204//80
f 184//24 205//24 208//24 182//24
f 181//74 182//74 208//74 206//74
f 191//27 207//27 206//27 190//27
f 191//81 189//81 205//81 207//81
