# Blender v2.79 (sub 0) OBJ File: 'Fence.blend'
# www.blender.org
mtllib Fence.mtl
o Fence_Cube.049
v -0.400949 0.308541 -0.008272
v -0.400949 0.308777 0.007107
v -0.400949 0.223035 -0.006964
v -0.400949 0.223270 0.008415
v 0.390060 0.308541 -0.008272
v 0.390060 0.308777 0.007107
v 0.390060 0.223035 -0.006964
v 0.390060 0.223270 0.008415
v -0.126169 0.228352 -0.007008
v -0.126126 0.234854 0.008276
v -0.125588 0.313857 -0.008316
v -0.125588 0.314092 0.007064
v 0.121334 0.216122 0.008524
v 0.122708 0.310702 -0.008305
v 0.121334 0.215887 -0.006855
v 0.122708 0.310937 0.007074
v -0.112009 0.239741 -0.007182
v -0.109495 0.314422 0.007059
v -0.112009 0.239976 0.008197
v -0.109495 0.314186 -0.008321
v 0.110424 0.217878 0.008498
v 0.114546 0.295080 -0.008066
v 0.110423 0.217643 -0.006882
v 0.114546 0.295315 0.007313
v -0.101369 0.225935 -0.006971
v -0.077428 0.315079 0.007049
v -0.101369 0.226170 0.008409
v -0.077428 0.314843 -0.008331
v 0.256746 0.215846 0.008529
v 0.255742 0.295092 -0.008067
v 0.256746 0.215611 -0.006851
v 0.255742 0.295328 0.007313
v -0.400949 0.125624 -0.006256
v -0.400949 0.125959 0.009121
v -0.400949 0.211121 -0.008119
v -0.400949 0.211456 0.007259
v 0.390060 0.125624 -0.006256
v 0.390060 0.125959 0.009121
v 0.390060 0.211121 -0.008119
v 0.390060 0.211456 0.007259
v -0.240936 0.218149 -0.008272
v -0.240936 0.212218 0.007242
v -0.240936 0.132652 -0.006409
v -0.240936 0.132987 0.008968
v 0.134814 0.208230 0.007329
v 0.134814 0.122398 -0.006186
v 0.134814 0.207895 -0.008048
v 0.134814 0.122733 0.009191
v -0.226854 0.206665 -0.008022
v -0.224845 0.132548 0.008978
v -0.226854 0.207000 0.007356
v -0.224845 0.132213 -0.006400
v 0.123763 0.208192 0.007330
v 0.115790 0.130730 -0.006368
v 0.123763 0.207857 -0.008048
v 0.115790 0.131065 0.009010
v -0.194613 0.220831 -0.008330
v -0.192784 0.131673 0.008997
v -0.194613 0.221166 0.007047
v -0.192784 0.131338 -0.006381
v 0.263441 0.203819 0.007425
v 0.262437 0.124011 -0.006221
v 0.263441 0.203484 -0.007952
v 0.262437 0.124346 0.009156
v -0.311739 -0.002826 0.013071
v -0.311739 0.323195 0.013071
v -0.311739 -0.002826 -0.012816
v -0.311739 0.323195 -0.012816
v -0.277785 -0.002826 0.013071
v -0.277785 0.323195 0.013071
v -0.277785 -0.002826 -0.012816
v -0.277785 0.323195 -0.012816
v 0.311739 -0.002826 0.013071
v 0.311739 0.323195 0.013071
v 0.311739 -0.002826 -0.012816
v 0.311739 0.323195 -0.012816
v 0.277785 -0.002826 0.013071
v 0.277785 0.323195 0.013071
v 0.277785 -0.002826 -0.012816
v 0.277785 0.323195 -0.012816
v -0.305311 0.227846 0.013071
v -0.305311 0.227846 -0.012816
v -0.277785 0.231703 -0.012816
v -0.277785 0.231703 0.013071
v -0.311739 0.203353 -0.012816
v -0.277785 0.203353 -0.012816
v -0.277785 0.203353 0.013071
v -0.311739 0.203353 0.013071
v -0.311739 0.110573 -0.012816
v -0.277785 0.110573 -0.012816
v -0.277785 0.110573 0.013071
v -0.311739 0.110573 0.013071
v -0.306597 0.092535 -0.012816
v -0.277785 0.093821 -0.012816
v -0.277785 0.093821 0.013071
v -0.306597 0.092535 0.013071
v 0.305260 0.257435 0.013071
v 0.305260 0.257435 -0.012816
v 0.277785 0.257435 -0.012816
v 0.277785 0.257435 0.013071
v 0.311739 0.236986 -0.012816
v 0.277785 0.236986 -0.012816
v 0.277785 0.236986 0.013071
v 0.311739 0.236986 0.013071
v 0.311739 0.155190 -0.012816
v 0.284264 0.152413 -0.012816
v 0.284264 0.152413 0.013071
v 0.311739 0.155190 0.013071
v 0.311739 0.112433 -0.012816
v 0.277785 0.112433 -0.012816
v 0.277785 0.112433 0.013071
v 0.311739 0.112433 0.013071
vn -1.0000 0.0000 0.0000
vn 0.0556 -0.9983 0.0153
vn 1.0000 0.0000 0.0000
vn -0.0193 0.9997 -0.0153
vn 0.0000 -0.0153 -0.9999
vn -0.0001 0.0153 0.9999
vn 0.0000 0.0153 0.9999
vn 0.0001 -0.0153 -0.9999
vn -0.0205 0.9997 -0.0153
vn 0.0301 -0.9763 0.2145
vn 0.1165 0.9931 -0.0152
vn -0.1589 -0.9872 0.0151
vn 0.4967 -0.8478 0.1856
vn -0.8863 0.4630 -0.0071
vn -0.0391 -0.9991 0.0153
vn -0.0002 -0.0153 -0.9999
vn -0.7921 -0.6103 0.0093
vn 0.0002 0.0153 0.9999
vn 0.1024 0.9946 -0.0152
vn -0.0996 0.9949 -0.0152
vn -0.0020 -0.9999 0.0153
vn -0.0602 0.9979 -0.0217
vn 0.0439 -0.9988 0.0218
vn 0.0000 -0.0218 -0.9998
vn -0.0000 0.0218 0.9998
vn -0.0273 -0.9994 0.0218
vn -0.0239 0.9837 0.1782
vn 0.0126 -0.9997 0.0218
vn -0.0034 0.9998 -0.0218
vn 0.5025 0.8507 0.1541
vn -0.4013 -0.9157 0.0199
vn 0.0407 0.9989 -0.0218
vn -0.4023 0.9153 -0.0199
vn -0.0020 -0.9998 0.0218
vn 0.0343 0.9992 -0.0218
vn -0.9977 -0.0673 0.0000
vn 0.0000 0.0000 -1.0000
vn 0.0000 0.0000 1.0000
vn 0.0000 -1.0000 0.0000
vn 0.0000 1.0000 0.0000
vn 0.9952 -0.0981 0.0000
vn -0.9672 0.2538 0.0000
vn -0.9617 -0.2742 0.0000
vn -0.9985 0.0538 0.0000
vn 0.9533 0.3021 0.0000
vn -0.9971 -0.0764 0.0000
vn -0.9871 0.1600 0.0000
usemtl Wood
s off
f 1//1 3//1 4//1 2//1
f 31//2 7//2 8//2 29//2
f 7//3 5//3 6//3 8//3
f 11//4 1//4 2//4 12//4
f 31//5 30//5 5//5 7//5
f 10//6 12//6 2//6 4//6
f 19//7 18//7 12//7 10//7
f 3//8 1//8 11//8 9//8
f 20//9 11//9 12//9 18//9
f 3//10 9//10 10//10 4//10
f 30//11 14//11 16//11 32//11
f 29//7 32//7 16//7 13//7
f 23//5 22//5 14//5 15//5
f 23//12 15//12 13//12 21//12
f 9//13 17//13 19//13 10//13
f 9//5 11//5 20//5 17//5
f 28//9 20//9 18//9 26//9
f 27//7 26//7 18//7 19//7
f 13//7 16//7 24//7 21//7
f 14//14 22//14 24//14 16//14
f 25//15 23//15 21//15 27//15
f 25//16 28//16 22//16 23//16
f 17//5 20//5 28//5 25//5
f 17//17 25//17 27//17 19//17
f 21//18 24//18 26//18 27//18
f 22//19 28//19 26//19 24//19
f 8//7 6//7 32//7 29//7
f 5//20 30//20 32//20 6//20
f 15//5 14//5 30//5 31//5
f 15//21 31//21 29//21 13//21
f 33//1 34//1 36//1 35//1
f 63//22 61//22 40//22 39//22
f 39//3 40//3 38//3 37//3
f 43//23 44//23 34//23 33//23
f 63//24 39//24 37//24 62//24
f 42//25 36//25 34//25 44//25
f 51//25 42//25 44//25 50//25
f 35//24 41//24 43//24 33//24
f 52//26 50//26 44//26 43//26
f 35//27 36//27 42//27 41//27
f 62//28 64//28 48//28 46//28
f 61//25 45//25 48//25 64//25
f 55//24 47//24 46//24 54//24
f 55//29 53//29 45//29 47//29
f 41//30 42//30 51//30 49//30
f 41//24 49//24 52//24 43//24
f 60//26 58//26 50//26 52//26
f 59//25 51//25 50//25 58//25
f 45//25 53//25 56//25 48//25
f 46//31 48//31 56//31 54//31
f 57//32 59//32 53//32 55//32
f 57//24 55//24 54//24 60//24
f 49//24 57//24 60//24 52//24
f 49//33 51//33 59//33 57//33
f 53//25 59//25 58//25 56//25
f 54//34 56//34 58//34 60//34
f 40//25 61//25 64//25 38//25
f 37//28 38//28 64//28 62//28
f 47//24 63//24 62//24 46//24
f 47//35 45//35 61//35 63//35
f 81//36 66//36 68//36 82//36
f 82//37 68//37 72//37 83//37
f 83//3 72//3 70//3 84//3
f 84//38 70//38 66//38 81//38
f 67//39 71//39 69//39 65//39
f 72//40 68//40 66//40 70//40
f 97//41 98//41 76//41 74//41
f 98//37 99//37 80//37 76//37
f 99//1 100//1 78//1 80//1
f 100//38 97//38 74//38 78//38
f 75//39 73//39 77//39 79//39
f 80//40 78//40 74//40 76//40
f 87//38 84//38 81//38 88//38
f 86//3 83//3 84//3 87//3
f 85//37 82//37 83//37 86//37
f 88//42 81//42 82//42 85//42
f 92//1 88//1 85//1 89//1
f 89//37 85//37 86//37 90//37
f 90//3 86//3 87//3 91//3
f 91//38 87//38 88//38 92//38
f 95//38 91//38 92//38 96//38
f 94//3 90//3 91//3 95//3
f 93//37 89//37 90//37 94//37
f 96//43 92//43 89//43 93//43
f 65//44 96//44 93//44 67//44
f 67//37 93//37 94//37 71//37
f 71//3 94//3 95//3 69//3
f 69//38 95//38 96//38 65//38
f 103//38 104//38 97//38 100//38
f 102//1 103//1 100//1 99//1
f 101//37 102//37 99//37 98//37
f 104//45 101//45 98//45 97//45
f 108//3 105//3 101//3 104//3
f 105//37 106//37 102//37 101//37
f 106//46 107//46 103//46 102//46
f 107//38 108//38 104//38 103//38
f 111//38 112//38 108//38 107//38
f 110//47 111//47 107//47 106//47
f 109//37 110//37 106//37 105//37
f 112//3 109//3 105//3 108//3
f 73//3 75//3 109//3 112//3
f 75//37 79//37 110//37 109//37
f 79//1 77//1 111//1 110//1
f 77//38 73//38 112//38 111//38
