# Blender v3.0.0 OBJ File: 'Scene1.blend'
# www.blender.org
mtllib ground.mtl
o ground_Plane
v -8.874876 0.000000 8.874876
v 8.874876 0.000000 8.874876
v -8.874876 0.000000 -8.874876
v 8.874876 0.000000 -8.874876
v -8.874876 0.000000 -5.916584
v -8.874876 0.000000 -2.958292
v -8.874876 0.000000 0.000000
v -8.874876 0.000000 2.958292
v -8.874876 0.000000 5.916584
v -5.916584 0.000000 8.874876
v -2.958292 0.000000 8.874876
v 0.000000 0.000000 8.874876
v 2.958292 0.000000 8.874876
v 5.916584 0.000000 8.874876
v 8.874876 0.000000 5.916584
v 8.874876 0.000000 2.958292
v 8.874876 0.000000 -0.000000
v 8.874876 0.000000 -2.958292
v 8.874876 0.000000 -5.916584
v 5.916584 0.000000 -8.874876
v 2.958292 0.000000 -8.874876
v -0.000000 0.000000 -8.874876
v -2.958292 0.000000 -8.874876
v -5.916584 0.000000 -8.874876
v -5.916584 0.000000 -5.916584
v -2.958292 0.000000 -2.958292
v 0.000000 0.000000 0.000000
v 2.958292 0.000000 2.958292
v 5.916584 0.000000 5.916584
v -2.958292 0.000000 -5.916584
v 0.000000 0.000000 -2.958292
v -0.000000 0.000000 -5.916584
v 2.958292 0.000000 0.000000
v 2.958292 0.000000 -2.958292
v 2.958292 0.000000 -5.916584
v 5.916584 0.000000 2.958292
v 5.916584 0.000000 0.000000
v 5.916584 0.000000 -2.958292
v 5.916584 0.000000 -5.916584
v -5.916584 0.000000 5.916584
v -2.958292 0.000000 5.916584
v -5.916584 0.000000 2.958292
v 0.000000 0.000000 5.916584
v -2.958292 0.000000 2.958292
v -5.916584 0.000000 0.000000
v 2.958292 0.000000 5.916584
v 0.000000 0.000000 2.958292
v -2.958292 0.000000 0.000000
v -5.916584 0.000000 -2.958292
vt -2.978858 3.978860
vt -1.819239 2.819240
vt -1.819239 3.978860
vt -2.978858 2.819241
vt 2.819239 -1.819239
vt 2.819239 -2.978859
vt 3.978858 -2.978859
vt 1.659619 -0.659619
vt 1.659619 -1.819239
vt 0.500000 0.500001
vt 0.500000 -0.659619
vt -0.659620 1.659621
vt -0.659620 0.500001
vt -1.819239 1.659621
vt 1.659619 -2.978858
vt 0.500000 -1.819239
vt 0.500000 -2.978858
vt -0.659620 -0.659619
vt -0.659620 -1.819239
vt -0.659620 -2.978858
vt -1.819239 0.500001
vt -1.819239 -0.659619
vt -1.819239 -1.819238
vt -1.819239 -2.978858
vt -2.978858 1.659621
vt -2.978858 0.500001
vt -2.978858 -0.659618
vt -2.978859 -1.819238
vt -2.978859 -2.978858
vt 2.819239 3.978858
vt 3.978859 2.819239
vt 3.978859 3.978858
vt 1.659620 3.978859
vt 2.819239 2.819239
vt 0.500000 3.978859
vt 1.659620 2.819239
vt -0.659619 3.978859
vt 0.500000 2.819239
vt -0.659619 2.819240
vt 3.978858 1.659619
vt 2.819239 1.659619
vt 3.978858 0.499999
vt 1.659620 1.659619
vt 2.819239 0.500000
vt 3.978858 -0.659620
vt 0.500000 1.659620
vt 1.659619 0.500000
vt 2.819239 -0.659620
vt 3.978858 -1.819239
vn 0.0000 1.0000 0.0000
usemtl groundMaterial
s off
f 2/1/1 29/2/1 14/3/1
f 2/1/1 15/4/1 29/2/1
f 25/5/1 24/6/1 3/7/1
f 26/8/1 30/9/1 25/5/1
f 27/10/1 31/11/1 26/8/1
f 28/12/1 33/13/1 27/10/1
f 29/2/1 36/14/1 28/12/1
f 25/5/1 30/9/1 24/6/1
f 30/9/1 23/15/1 24/6/1
f 26/8/1 31/11/1 30/9/1
f 31/11/1 32/16/1 30/9/1
f 30/9/1 32/16/1 23/15/1
f 32/16/1 22/17/1 23/15/1
f 27/10/1 33/13/1 31/11/1
f 33/13/1 34/18/1 31/11/1
f 31/11/1 34/18/1 32/16/1
f 34/18/1 35/19/1 32/16/1
f 32/16/1 35/19/1 22/17/1
f 35/19/1 21/20/1 22/17/1
f 28/12/1 36/14/1 33/13/1
f 36/14/1 37/21/1 33/13/1
f 33/13/1 37/21/1 34/18/1
f 37/21/1 38/22/1 34/18/1
f 34/18/1 38/22/1 35/19/1
f 38/22/1 39/23/1 35/19/1
f 35/19/1 39/23/1 21/20/1
f 39/23/1 20/24/1 21/20/1
f 29/2/1 15/4/1 36/14/1
f 15/4/1 16/25/1 36/14/1
f 36/14/1 16/25/1 37/21/1
f 16/25/1 17/26/1 37/21/1
f 37/21/1 17/26/1 38/22/1
f 17/26/1 18/27/1 38/22/1
f 38/22/1 18/27/1 39/23/1
f 18/27/1 19/28/1 39/23/1
f 39/23/1 19/28/1 20/24/1
f 19/28/1 4/29/1 20/24/1
f 10/30/1 9/31/1 1/32/1
f 11/33/1 40/34/1 10/30/1
f 12/35/1 41/36/1 11/33/1
f 13/37/1 43/38/1 12/35/1
f 14/3/1 46/39/1 13/37/1
f 10/30/1 40/34/1 9/31/1
f 40/34/1 8/40/1 9/31/1
f 11/33/1 41/36/1 40/34/1
f 41/36/1 42/41/1 40/34/1
f 40/34/1 42/41/1 8/40/1
f 42/41/1 7/42/1 8/40/1
f 12/35/1 43/38/1 41/36/1
f 43/38/1 44/43/1 41/36/1
f 41/36/1 44/43/1 42/41/1
f 44/43/1 45/44/1 42/41/1
f 42/41/1 45/44/1 7/42/1
f 45/44/1 6/45/1 7/42/1
f 13/37/1 46/39/1 43/38/1
f 46/39/1 47/46/1 43/38/1
f 43/38/1 47/46/1 44/43/1
f 47/46/1 48/47/1 44/43/1
f 44/43/1 48/47/1 45/44/1
f 48/47/1 49/48/1 45/44/1
f 45/44/1 49/48/1 6/45/1
f 49/48/1 5/49/1 6/45/1
f 14/3/1 29/2/1 46/39/1
f 29/2/1 28/12/1 46/39/1
f 46/39/1 28/12/1 47/46/1
f 28/12/1 27/10/1 47/46/1
f 47/46/1 27/10/1 48/47/1
f 27/10/1 26/8/1 48/47/1
f 48/47/1 26/8/1 49/48/1
f 26/8/1 25/5/1 49/48/1
f 49/48/1 25/5/1 5/49/1
f 25/5/1 3/7/1 5/49/1
