# Blender v2.79 (sub 0) OBJ File: 'Bag.blend'
# www.blender.org
mtllib Bag.mtl
o Bag_Cube.253
v -0.075675 0.014463 -0.043477
v 0.064873 0.014463 -0.054109
v 0.075675 0.014463 0.041654
v -0.064873 0.014463 0.052286
v 0.061116 -0.000244 0.034176
v -0.061116 0.039923 0.034176
v 0.023279 0.050956 0.026697
v -0.023279 -0.000523 0.026697
v 0.023279 0.021771 0.043738
v -0.023279 0.021771 -0.045561
v 0.023279 -0.000523 -0.000911
v 0.057360 0.050956 -0.000911
v -0.064873 0.014463 -0.054109
v -0.061116 -0.000244 0.034176
v -0.023279 0.050956 0.026697
v -0.023279 0.021771 0.043738
v 0.068162 0.021771 -0.000911
v -0.023279 0.057848 -0.000911
v 0.064873 0.014463 0.052286
v 0.061116 0.039923 0.034176
v 0.023279 -0.000523 0.026697
v 0.023279 0.021771 -0.045561
v 0.061116 0.039923 -0.035998
v 0.023279 -0.000523 -0.028520
v -0.061116 -0.000244 -0.035998
v -0.023279 0.050956 -0.028520
v 0.075675 0.014463 -0.043477
v 0.061116 -0.000244 -0.035998
v -0.061116 0.039923 -0.035998
v 0.023279 0.050956 -0.028520
v -0.023279 -0.000523 -0.028520
v -0.023279 -0.000523 -0.000911
v -0.075675 0.014463 0.041654
v -0.057360 0.050956 -0.000911
v 0.057360 -0.000523 -0.000911
v 0.023279 0.057848 -0.000911
v -0.068162 0.021771 -0.000911
v -0.057360 -0.000523 -0.000911
v -0.072035 0.003573 0.039785
v -0.076730 0.010809 0.053902
v -0.072035 0.028041 -0.041607
v -0.076730 0.010809 -0.055725
v -0.063933 0.003573 -0.049581
v 0.063933 0.028041 -0.049581
v 0.076730 0.010809 -0.055725
v 0.072035 0.003573 -0.041607
v 0.072035 0.028041 0.039785
v 0.076730 0.010809 0.053902
v 0.063933 0.003573 0.047758
v -0.063933 0.028041 0.047758
v 0.023279 0.005051 -0.041300
v -0.023279 0.040214 -0.041300
v -0.023279 0.005051 0.039478
v 0.023279 0.040214 0.039478
v 0.000000 0.050956 0.026697
v 0.000000 -0.000523 0.026697
v 0.000000 0.021771 0.043738
v 0.000000 0.021771 -0.045561
v -0.023279 0.005051 -0.041300
v -0.023279 0.040214 0.039478
v -0.063933 0.028041 -0.049581
v -0.063933 0.003573 0.047758
v -0.045317 0.019944 -0.047698
v -0.044378 -0.000453 0.028567
v -0.044378 0.048198 0.028567
v -0.045317 0.019944 0.045875
v 0.023279 0.040214 -0.041300
v 0.023279 0.005051 0.039478
v 0.063933 0.003573 -0.049581
v 0.063933 0.028041 0.047758
v 0.045317 0.019944 0.045875
v 0.044378 0.048198 0.028567
v 0.044378 -0.000453 0.028567
v 0.045317 0.019944 -0.047698
v -0.065462 0.040214 -0.000911
v 0.065462 0.005051 -0.000911
v -0.072035 0.003573 -0.041607
v 0.072035 0.028041 -0.041607
v 0.000000 0.050956 -0.028520
v 0.000000 -0.000523 -0.028520
v -0.044378 0.048198 -0.030390
v -0.044378 -0.000453 -0.030390
v 0.044378 -0.000453 -0.030390
v 0.044378 0.048198 -0.030390
v 0.058299 0.048198 -0.018172
v 0.023279 -0.000523 -0.013098
v -0.058299 -0.000453 -0.018172
v -0.023279 0.056125 -0.013098
v 0.070040 0.019944 -0.023246
v 0.058299 -0.000453 -0.018172
v -0.058299 0.048198 -0.018172
v 0.023279 0.056125 -0.013098
v -0.023279 -0.000523 -0.013098
v -0.070040 0.019944 -0.023246
v -0.065462 0.005051 -0.000911
v 0.065462 0.040214 -0.000911
v 0.000000 0.057848 -0.000911
v 0.000000 -0.000523 -0.000911
v -0.072035 0.028041 0.039785
v 0.072035 0.003573 0.039785
v -0.043439 -0.000523 -0.000911
v -0.043439 0.056125 -0.000911
v 0.043439 0.056125 -0.000911
v 0.043439 -0.000523 -0.000911
v 0.023279 -0.000523 0.011275
v 0.058299 0.048198 0.016349
v -0.023279 0.056125 0.011275
v -0.058299 -0.000453 0.016349
v -0.070040 0.019944 0.021423
v -0.023279 -0.000523 0.011275
v 0.023279 0.056125 0.011275
v -0.058299 0.048198 0.016349
v 0.058299 -0.000453 0.016349
v 0.070040 0.019944 0.021423
v -0.072126 0.004793 0.048629
v -0.072126 0.022080 0.048629
v -0.072126 0.004793 -0.050452
v -0.072126 0.022080 -0.050452
v 0.072126 0.004793 0.048629
v 0.072126 0.022080 0.048629
v 0.072126 0.004793 -0.050452
v 0.072126 0.022080 -0.050452
v 0.000000 0.005051 -0.041300
v 0.000000 0.040214 -0.041300
v 0.000000 0.005051 0.039478
v 0.000000 0.040214 0.039478
v -0.045082 0.004681 -0.043371
v -0.045082 0.037171 0.041548
v -0.045082 0.037171 -0.043371
v -0.045082 0.004681 0.041548
v 0.045082 0.037171 -0.043371
v 0.045082 0.004681 0.041548
v 0.045082 0.004681 -0.043371
v 0.045082 0.037171 0.041548
v -0.067105 0.037171 -0.021977
v 0.067105 0.004681 -0.021977
v -0.067105 0.004681 -0.021977
v 0.067105 0.037171 -0.021977
v 0.000000 0.056125 -0.013098
v 0.000000 -0.000523 -0.013098
v -0.043674 0.054143 -0.014366
v -0.043674 -0.000505 -0.014366
v 0.043674 -0.000505 -0.014366
v 0.043674 0.054143 -0.014366
v -0.067105 0.004681 0.020154
v 0.067105 0.037171 0.020154
v 0.000000 0.056125 0.011275
v 0.000000 -0.000523 0.011275
v -0.067105 0.037171 0.020154
v 0.067105 0.004681 0.020154
v -0.043674 -0.000505 0.012543
v -0.043674 0.054143 0.012543
v 0.043674 0.054143 0.012543
v 0.043674 -0.000505 0.012543
vn -0.9949 -0.0043 0.1012
vn -0.9349 -0.2895 0.2055
vn -0.9657 -0.1859 0.1814
vn -0.9871 0.0035 0.1602
vn -0.8878 0.4597 -0.0219
vn -0.8354 0.5207 -0.1761
vn -0.6001 0.5111 -0.6154
vn -0.9956 -0.0929 0.0114
vn -0.9101 -0.4032 0.0960
vn -0.1588 -0.0115 -0.9872
vn -0.2673 -0.3624 -0.8929
vn -0.2232 -0.2740 -0.9355
vn -0.1881 0.0033 -0.9821
vn 0.0103 0.5619 -0.8271
vn 0.1497 0.5649 -0.8114
vn 0.6001 0.5111 -0.6154
vn 0.0673 0.3790 -0.9229
vn -0.1638 -0.4540 -0.8758
vn 0.9949 -0.0043 -0.1012
vn 0.9349 -0.2895 -0.2055
vn 0.9657 -0.1859 -0.1814
vn 0.9871 0.0035 -0.1602
vn 0.8878 0.4597 0.0219
vn 0.8354 0.5207 0.1761
vn 0.6001 0.5111 0.6154
vn 0.9956 -0.0929 -0.0114
vn 0.9101 -0.4032 -0.0960
vn 0.1588 -0.0115 0.9872
vn 0.2673 -0.3624 0.8929
vn 0.2232 -0.2740 0.9355
vn 0.1881 0.0033 0.9821
vn -0.0103 0.5619 0.8271
vn -0.1497 0.5649 0.8114
vn -0.6001 0.5111 0.6154
vn -0.0673 0.3790 0.9229
vn 0.1638 -0.4540 0.8758
vn 0.1497 -0.9832 0.1042
vn -0.0355 -0.9841 0.1740
vn 0.0023 -1.0000 0.0028
vn 0.2596 -0.9652 -0.0316
vn 0.4868 -0.8689 -0.0899
vn 0.2753 -0.9562 0.0998
vn 0.1888 -0.9631 0.1918
vn 0.0727 -0.9664 0.2464
vn -0.0943 -0.9300 0.3553
vn -0.4478 0.7880 0.4226
vn -0.1591 0.8614 0.4823
vn -0.2060 0.9510 0.2308
vn -0.5478 0.8155 0.1866
vn -0.8878 0.4597 0.0219
vn -0.8354 0.5207 0.1761
vn 0.0329 0.8736 0.4855
vn 0.1591 0.8614 0.4823
vn 0.2060 0.9510 0.2308
vn 0.0422 0.9720 0.2312
vn 0.0000 0.9732 0.2298
vn 0.0000 0.8722 0.4892
vn 0.0000 0.5222 0.8528
vn -0.0031 0.5378 0.8431
vn 0.0103 0.5619 0.8271
vn 0.0096 -0.9807 0.1952
vn 0.0355 -0.9841 0.1740
vn -0.0023 -1.0000 0.0028
vn -0.0006 -1.0000 0.0006
vn 0.0000 -1.0000 0.0000
vn 0.0000 -0.9789 0.2042
vn 0.0000 -0.9166 0.3997
vn 0.0214 -0.9197 0.3920
vn 0.0943 -0.9300 0.3553
vn -0.0443 -0.0055 0.9990
vn -0.0525 -0.2524 0.9662
vn -0.2232 -0.2740 0.9355
vn -0.1881 0.0033 0.9821
vn 0.0000 -0.0112 0.9999
vn 0.0000 -0.2469 0.9690
vn 0.0443 -0.0055 -0.9990
vn 0.0525 -0.2524 -0.9662
vn 0.2232 -0.2740 -0.9355
vn 0.1881 0.0033 -0.9821
vn -0.0103 0.5619 -0.8271
vn 0.0031 0.5378 -0.8431
vn 0.0000 0.5222 -0.8528
vn 0.0000 -0.0112 -0.9999
vn 0.0000 -0.2469 -0.9690
vn 0.0002 -1.0000 0.0000
vn 0.0006 -1.0000 -0.0006
vn 0.0023 -1.0000 -0.0028
vn 0.0009 -1.0000 0.0000
vn 0.0006 -1.0000 0.0006
vn 0.5703 0.8214 -0.0000
vn 0.5478 0.8155 -0.1866
vn 0.2060 0.9510 -0.2308
vn 0.2150 0.9766 -0.0000
vn 0.5478 0.8155 0.1866
vn 0.9063 0.4227 0.0000
vn 0.8878 0.4597 -0.0219
vn 0.1588 -0.0115 -0.9872
vn 0.2673 -0.3624 -0.8929
vn 0.1638 -0.4540 -0.8758
vn -0.0673 0.3790 -0.9229
vn -0.1497 0.5649 -0.8114
vn -0.1497 -0.9832 0.1043
vn -0.2753 -0.9562 0.0998
vn -0.4868 -0.8689 -0.0899
vn -0.2596 -0.9652 -0.0316
vn -0.0727 -0.9664 0.2464
vn -0.1888 -0.9631 0.1918
vn -0.0329 0.8736 0.4855
vn -0.0422 0.9720 0.2312
vn 0.0031 0.5378 0.8431
vn 0.0443 -0.0055 0.9990
vn 0.0525 -0.2524 0.9662
vn 1.0000 0.0002 0.0000
vn 0.9854 -0.1701 0.0000
vn 0.9657 -0.1859 0.1814
vn 0.9871 0.0035 0.1602
vn -0.0431 0.9991 -0.0000
vn -0.0422 0.9720 -0.2312
vn -0.2060 0.9510 -0.2308
vn -0.2150 0.9766 0.0000
vn -0.0000 1.0000 -0.0000
vn -0.0000 0.9732 -0.2298
vn -0.1588 -0.0115 0.9872
vn -0.2673 -0.3624 0.8929
vn -0.1638 -0.4540 0.8758
vn 0.0673 0.3790 0.9229
vn 0.1497 0.5649 0.8114
vn 0.4478 0.7880 0.4226
vn -0.0096 -0.9807 0.1952
vn -0.0214 -0.9197 0.3920
vn -0.0443 -0.0055 -0.9990
vn -0.0525 -0.2524 -0.9662
vn -0.0031 0.5378 -0.8431
vn 0.4478 0.7880 -0.4226
vn 0.8354 0.5207 -0.1761
vn 0.1591 0.8614 -0.4823
vn -0.0096 -0.9807 -0.1952
vn 0.0000 -0.9789 -0.2042
vn 0.0000 -0.9166 -0.3997
vn -0.0214 -0.9197 -0.3920
vn -0.0943 -0.9300 -0.3553
vn -0.0355 -0.9841 -0.1740
vn -0.1497 -0.9832 -0.1043
vn -0.2753 -0.9562 -0.0998
vn -0.1888 -0.9631 -0.1918
vn -0.0727 -0.9664 -0.2464
vn 0.0943 -0.9300 -0.3553
vn 0.0355 -0.9841 -0.1740
vn -0.0023 -1.0000 -0.0028
vn -0.2596 -0.9652 0.0316
vn -0.4868 -0.8689 0.0899
vn -0.0329 0.8736 -0.4855
vn -0.0000 0.8722 -0.4892
vn -0.1591 0.8614 -0.4823
vn 0.9949 -0.0043 0.1012
vn 0.9349 -0.2895 0.2055
vn 0.9101 -0.4032 0.0960
vn 0.9956 -0.0929 0.0114
vn 0.1497 -0.9832 -0.1043
vn 0.0727 -0.9664 -0.2464
vn 0.1888 -0.9631 -0.1918
vn 0.2753 -0.9562 -0.0998
vn 0.4868 -0.8689 0.0899
vn 0.2596 -0.9652 0.0316
vn -0.4478 0.7880 -0.4226
vn -0.5478 0.8155 -0.1866
vn 0.0329 0.8736 -0.4855
vn 0.0422 0.9720 -0.2312
vn 0.0096 -0.9807 -0.1952
vn 0.0214 -0.9197 -0.3920
vn -0.0006 -1.0000 -0.0006
vn -0.0002 -1.0000 -0.0000
vn -0.0009 -1.0000 -0.0000
vn -0.9949 -0.0043 -0.1012
vn -0.9349 -0.2895 -0.2055
vn -0.9101 -0.4032 -0.0960
vn -0.9956 -0.0929 -0.0114
vn -0.9871 0.0035 -0.1602
vn -0.9657 -0.1859 -0.1814
vn -0.5703 0.8214 0.0000
vn -0.9063 0.4227 -0.0000
vn 0.2740 -0.9617 0.0000
vn 0.5419 -0.8404 0.0000
vn 0.0431 0.9991 -0.0000
vn -1.0000 0.0002 0.0000
vn -0.9854 -0.1701 0.0000
vn -0.2740 -0.9617 0.0000
vn -0.5419 -0.8404 0.0000
usemtl Bag
s 1
f 1//1 77//2 137//3 94//4
f 1//1 94//4 135//5 41//6
f 1//1 41//6 118//7 42//8
f 1//1 42//8 117//9 77//2
f 2//10 69//11 133//12 74//13
f 2//10 74//13 131//14 44//15
f 2//10 44//15 122//16 45//17
f 2//10 45//18 121//18 69//11
f 3//19 100//20 150//21 114//22
f 3//19 114//22 146//23 47//24
f 3//19 47//24 120//25 48//26
f 3//19 48//26 119//27 100//20
f 4//28 62//29 130//30 66//31
f 4//28 66//31 128//32 50//33
f 4//28 50//33 116//34 40//35
f 4//28 40//36 115//36 62//29
f 5//37 73//38 154//39 113//40
f 5//37 113//40 150//41 100//42
f 5//37 100//42 119//43 49//44
f 5//37 49//44 132//45 73//38
f 6//46 65//47 152//48 112//49
f 6//46 112//49 149//50 99//51
f 6//46 99//51 116//34 50//33
f 6//46 50//33 128//32 65//47
f 7//52 72//53 153//54 111//55
f 7//52 111//55 147//56 55//57
f 7//52 55//57 126//58 54//59
f 7//52 54//59 134//60 72//53
f 8//61 64//62 151//63 110//64
f 8//61 110//64 148//65 56//66
f 8//61 56//66 125//67 53//68
f 8//61 53//68 130//69 64//62
f 9//70 68//71 132//72 71//73
f 9//70 71//73 134//60 54//59
f 9//70 54//59 126//58 57//74
f 9//70 57//74 125//75 68//71
f 10//76 59//77 127//78 63//79
f 10//76 63//79 129//80 52//81
f 10//76 52//81 124//82 58//83
f 10//76 58//83 123//84 59//77
f 11//85 86//86 143//87 104//88
f 11//85 104//88 154//39 105//89
f 11//85 105//89 148//65 98//65
f 11//85 98//65 140//65 86//86
f 12//90 85//91 144//92 103//93
f 12//90 103//93 153//54 106//94
f 12//90 106//94 146//23 96//95
f 12//90 96//95 138//96 85//91
f 13//97 43//98 117//99 42//99
f 13//97 42//100 118//7 61//101
f 13//97 61//101 129//80 63//79
f 13//97 63//79 127//78 43//98
f 14//102 39//103 145//104 108//105
f 14//102 108//105 151//63 64//62
f 14//102 64//62 130//69 62//106
f 14//102 62//106 115//107 39//103
f 15//108 55//57 147//56 107//109
f 15//108 107//109 152//48 65//47
f 15//108 65//47 128//32 60//110
f 15//108 60//110 126//58 55//57
f 16//111 53//112 125//75 57//74
f 16//111 57//74 126//58 60//110
f 16//111 60//110 128//32 66//31
f 16//111 66//31 130//30 53//112
f 17//113 76//114 136//115 89//116
f 17//113 89//116 138//96 96//95
f 17//113 96//95 146//23 114//22
f 17//113 114//22 150//21 76//114
f 18//117 88//118 141//119 102//120
f 18//117 102//120 152//48 107//109
f 18//117 107//109 147//56 97//121
f 18//117 97//121 139//122 88//118
f 19//123 49//124 119//125 48//125
f 19//123 48//126 120//25 70//127
f 19//123 70//127 134//60 71//73
f 19//123 71//73 132//72 49//124
f 20//128 47//24 146//23 106//94
f 20//128 106//94 153//54 72//53
f 20//128 72//53 134//60 70//127
f 20//128 70//127 120//25 47//24
f 21//129 56//66 148//65 105//89
f 21//129 105//89 154//39 73//38
f 21//129 73//38 132//45 68//130
f 21//129 68//130 125//67 56//66
f 22//131 51//132 123//84 58//83
f 22//131 58//83 124//82 67//133
f 22//131 67//133 131//14 74//13
f 22//131 74//13 133//12 51//132
f 23//134 78//135 122//16 44//15
f 23//134 44//15 131//14 84//136
f 23//134 84//136 144//92 85//91
f 23//134 85//91 138//96 78//135
f 24//137 80//138 123//139 51//140
f 24//137 51//140 133//141 83//142
f 24//137 83//142 143//87 86//86
f 24//137 86//86 140//65 80//138
f 25//143 77//144 117//145 43//146
f 25//143 43//146 127//147 82//148
f 25//143 82//148 142//149 87//150
f 25//143 87//150 137//151 77//144
f 26//152 79//153 124//82 52//81
f 26//152 52//81 129//80 81//154
f 26//152 81//154 141//119 88//118
f 26//152 88//118 139//122 79//153
f 27//155 46//156 121//157 45//158
f 27//155 45//158 122//16 78//135
f 27//155 78//135 138//96 89//116
f 27//155 89//116 136//115 46//156
f 28//159 83//142 133//141 69//160
f 28//159 69//160 121//161 46//162
f 28//159 46//162 136//163 90//164
f 28//159 90//164 143//87 83//142
f 29//165 81//154 129//80 61//101
f 29//165 61//101 118//7 41//6
f 29//165 41//6 135//5 91//166
f 29//165 91//166 141//119 81//154
f 30//167 84//136 131//14 67//133
f 30//167 67//133 124//82 79//153
f 30//167 79//153 139//122 92//168
f 30//167 92//168 144//92 84//136
f 31//169 82//148 127//147 59//170
f 31//169 59//170 123//139 80//138
f 31//169 80//138 140//65 93//171
f 31//169 93//171 142//149 82//148
f 32//172 101//173 142//149 93//171
f 32//172 93//171 140//65 98//65
f 32//172 98//65 148//65 110//64
f 32//172 110//64 151//63 101//173
f 33//174 39//175 115//176 40//177
f 33//174 40//177 116//34 99//51
f 33//174 99//51 149//50 109//178
f 33//174 109//178 145//179 39//175
f 34//180 102//120 141//119 91//166
f 34//180 91//166 135//5 75//181
f 34//180 75//181 149//50 112//49
f 34//180 112//49 152//48 102//120
f 35//182 104//88 143//87 90//164
f 35//182 90//164 136//163 76//183
f 35//182 76//183 150//41 113//40
f 35//182 113//40 154//39 104//88
f 36//184 103//93 144//92 92//168
f 36//184 92//168 139//122 97//121
f 36//184 97//121 147//56 111//55
f 36//184 111//55 153//54 103//93
f 37//185 95//186 145//179 109//178
f 37//185 109//178 149//50 75//181
f 37//185 75//181 135//5 94//4
f 37//185 94//4 137//3 95//186
f 38//187 87//150 142//149 101//173
f 38//187 101//173 151//63 108//105
f 38//187 108//105 145//104 95//188
f 38//187 95//188 137//151 87//150
