# Blender v2.79 (sub 0) OBJ File: 'Bag_Open.blend'
# www.blender.org
mtllib Bag_Open.mtl
o Bag_Open_Cube.257
v -0.056149 0.048838 -0.037933
v 0.001860 0.058482 -0.080568
v 0.049095 0.044272 0.048585
v 0.008618 0.034496 0.091279
v 0.007281 -0.000893 0.039732
v 0.008587 0.004414 0.095571
v 0.055718 0.006036 0.047868
v 0.001978 0.008017 -0.095571
v -0.063741 0.006395 -0.047868
v -0.041116 0.004594 0.047703
v 0.071113 0.007838 -0.047703
v 0.003712 -0.000893 -0.039732
v 0.063367 0.056134 -0.037279
v -0.034506 0.036713 0.048050
v -0.024550 0.000479 0.041724
v -0.019066 0.033128 0.080353
v -0.041112 0.072704 -0.032832
v -0.044231 0.007251 -0.083686
v 0.002437 0.001334 -0.073557
v 0.001514 0.091013 -0.065198
v 0.049041 0.008333 -0.083562
v 0.048352 0.001290 -0.041724
v 0.036590 0.061124 0.034314
v 0.040336 0.005180 0.083686
v 0.008241 0.000434 0.073557
v 0.008857 0.042536 0.066801
v -0.023805 0.004099 0.083562
v -0.039454 0.054280 -0.070088
v 0.044049 0.059686 -0.069567
v 0.035641 0.038862 0.080725
v 0.008636 0.013046 0.101837
v 0.058840 0.017745 0.051155
v 0.001900 0.024360 -0.101636
v -0.068190 0.019695 -0.050969
v -0.040941 0.000929 -0.041766
v -0.021773 0.048186 0.033289
v 0.039122 0.000839 0.041766
v 0.047947 0.085084 -0.031565
v 0.075474 0.023368 -0.050567
v -0.044196 0.014004 0.050782
v -0.065130 0.005495 -0.000083
v 0.075915 0.006937 0.000083
v 0.005392 -0.000893 0.000000
v 0.067072 0.050203 0.005653
v -0.056355 0.042776 0.005058
v -0.015023 0.001325 0.068041
v -0.009993 0.040644 0.058198
v -0.030321 0.002727 -0.068096
v -0.029867 0.083410 -0.057454
v 0.031023 0.001806 0.068096
v 0.026982 0.050487 0.058905
v 0.035835 0.003207 -0.068041
v 0.033847 0.092557 -0.056443
v -0.025798 0.012342 0.088983
v -0.047370 0.022284 -0.089074
v 0.052041 0.025021 -0.088765
v 0.042413 0.015164 0.089256
v -0.041145 0.000704 -0.000021
v -0.039267 0.060445 0.000229
v 0.051930 0.001064 0.000021
v 0.049916 0.073104 0.001374
v 0.080469 0.020556 0.000294
v -0.069701 0.016849 -0.000094
v -0.044492 0.082192 -0.035279
v 0.001236 0.101835 -0.070001
v 0.038818 0.069770 0.036753
v 0.009067 0.049829 0.071605
v -0.023792 0.055891 0.035654
v 0.051049 0.095474 -0.033920
v -0.011154 0.047800 0.062375
v -0.032429 0.093678 -0.061693
v 0.028511 0.058359 0.063134
v 0.035922 0.103490 -0.060609
v -0.042512 0.069041 0.000187
v 0.053161 0.082622 0.001416
v -0.037521 0.078447 -0.030231
v 0.001809 0.095341 -0.060095
v 0.034222 0.067763 0.031722
v 0.008633 0.050612 0.061698
v -0.019628 0.055826 0.030777
v 0.044652 0.089871 -0.029062
v -0.008759 0.048867 0.053760
v -0.027146 0.088326 -0.052949
v 0.025357 0.057949 0.054413
v 0.031642 0.096765 -0.052017
v -0.035818 0.067136 0.000273
v 0.046468 0.078817 0.001330
v -0.025089 0.057510 -0.021232
v 0.002835 0.069505 -0.042435
v 0.025979 0.049924 0.022755
v 0.007811 0.037747 0.044038
v -0.012255 0.041448 0.022084
v 0.033253 0.065621 -0.020402
v -0.004537 0.036508 0.038402
v -0.017723 0.064524 -0.037361
v 0.019685 0.042956 0.038865
v 0.024016 0.070516 -0.036699
v -0.023880 0.049479 0.000426
v 0.034543 0.057772 0.001177
v -0.059500 0.040845 -0.045148
v 0.001789 0.050426 -0.089927
v 0.051673 0.035508 0.045799
v 0.008694 0.025809 0.090630
v 0.066652 0.047698 -0.044428
v -0.036988 0.028418 0.045182
v -0.020718 0.024659 0.079127
v -0.041755 0.046347 -0.078925
v 0.046227 0.051427 -0.078359
v 0.037430 0.030036 0.079563
v 0.070652 0.041603 0.000686
v -0.059926 0.034632 0.000017
v 0.005401 0.080948 -0.007541
v 0.045467 0.057711 -0.007752
v 0.005401 0.081869 -0.044484
v 0.005401 0.065211 0.029121
v 0.029859 0.073540 -0.007681
v -0.019056 0.073540 -0.007681
v -0.034664 0.057711 -0.007752
v 0.005401 0.060202 -0.064922
v 0.005401 0.055221 0.049418
v -0.010067 0.079096 -0.007576
v 0.005401 0.071175 0.015562
v 0.020869 0.079096 -0.007576
v 0.005401 0.087017 -0.030714
v -0.028542 0.065879 -0.007769
v 0.005401 0.060684 0.038589
v 0.039345 0.065879 -0.007769
v 0.005401 0.071074 -0.054128
v -0.013539 0.079787 -0.033645
v 0.021611 0.079787 -0.032552
v 0.018490 0.067293 0.019921
v -0.007687 0.067293 0.019921
v -0.042622 0.049290 -0.007681
v 0.005401 0.037020 0.062651
v 0.053425 0.049290 -0.007681
v 0.005401 0.049290 -0.076291
v 0.021774 0.055844 0.035126
v 0.037489 0.059579 -0.050629
v -0.026687 0.059579 -0.050629
v -0.010971 0.055844 0.035126
v -0.006146 0.072284 0.010859
v 0.016949 0.072284 0.010859
v -0.006388 0.083027 -0.024426
v 0.014460 0.083027 -0.023334
v -0.021783 0.069775 -0.042538
v -0.008469 0.061983 0.026999
v 0.019272 0.061983 0.026999
v 0.032586 0.069775 -0.042538
v -0.033060 0.049290 -0.059139
v -0.017179 0.037020 0.042915
v 0.027982 0.037020 0.042915
v 0.043863 0.049290 -0.059139
vn -0.8646 0.4659 -0.1884
vn -0.8829 0.4226 -0.2048
vn -0.8585 0.4615 0.2235
vn -0.8997 0.3793 0.2160
vn -0.8620 0.5025 -0.0673
vn -0.8243 0.4584 0.3324
vn -0.6636 0.6920 0.2841
vn -0.8326 0.5469 -0.0877
vn -0.8339 0.4792 -0.2740
vn -0.7931 0.5351 -0.2908
vn -0.8039 0.4721 -0.3617
vn -0.8251 0.4015 -0.3975
vn -0.0261 0.5890 -0.8077
vn -0.0175 0.4168 -0.9088
vn -0.2499 0.4099 -0.8772
vn -0.2467 0.5774 -0.7783
vn -0.0396 0.6249 -0.7797
vn -0.2597 0.6189 -0.7413
vn -0.2847 0.4314 -0.8561
vn -0.0146 0.4389 -0.8984
vn 0.2182 0.4192 -0.8813
vn 0.1868 0.6008 -0.7773
vn 0.1917 0.5819 -0.7903
vn 0.2227 0.3999 -0.8891
vn 0.8692 0.2910 0.3998
vn 0.8062 0.4457 0.3891
vn 0.8972 0.4084 0.1682
vn 0.9198 0.3620 0.1512
vn 0.4965 0.7659 0.4085
vn 0.8662 0.4266 0.2600
vn 0.7742 0.5969 0.2105
vn 0.5648 0.7145 0.4129
vn 0.2439 0.8772 0.4135
vn 0.0819 0.9067 0.4137
vn 0.8538 0.3308 0.4020
vn 0.7895 0.4738 0.3900
vn -0.0228 0.6528 0.7572
vn -0.0392 0.6540 0.7555
vn 0.2244 0.6129 0.7576
vn -0.1355 0.9308 0.3394
vn -0.1323 0.9298 0.3435
vn -0.2375 0.9252 0.2960
vn -0.2149 0.9330 0.2887
vn -0.2873 0.6498 0.7037
vn 0.0063 -0.9997 0.0237
vn -0.1181 -0.9916 0.0524
vn -0.1331 -0.9909 0.0213
vn 0.0042 -1.0000 0.0004
vn 0.1622 -0.9867 0.0138
vn 0.1500 -0.9872 0.0541
vn 0.1365 -0.9856 0.1000
vn 0.0122 -0.9934 0.1144
vn -0.1028 -0.9901 0.0954
vn 0.0163 -0.9859 0.1663
vn 0.1537 -0.9784 0.1380
vn 0.3162 -0.5345 0.7838
vn -0.2793 -0.5682 0.7740
vn -0.1148 -0.9845 0.1329
vn 0.2465 -0.9653 0.0865
vn 0.2522 -0.9676 0.0159
vn 0.8722 -0.3329 0.3584
vn 0.9383 -0.3169 0.1382
vn 0.9414 -0.3161 0.1178
vn 0.8714 -0.3354 0.3581
vn 0.8654 -0.3528 0.3560
vn 0.0093 -0.9634 -0.2680
vn 0.0079 -0.9831 -0.1828
vn -0.0982 -0.9827 -0.1573
vn -0.1297 -0.9723 -0.1945
vn 0.0068 -0.3529 -0.9357
vn -0.2220 -0.3544 -0.9084
vn 0.0110 -0.3526 -0.9357
vn 0.2370 -0.3324 -0.9129
vn 0.1559 -0.9645 -0.2131
vn 0.1178 -0.9782 -0.1711
vn -0.1998 -0.9770 -0.0743
vn -0.1302 -0.9899 -0.0553
vn -0.2084 -0.9777 0.0239
vn -0.9020 -0.3601 -0.2380
vn -0.9077 -0.3684 0.2008
vn -0.9151 -0.3668 0.1676
vn -0.8888 -0.3609 -0.2824
vn -0.8134 -0.3558 -0.4603
vn -0.1973 -0.9768 0.0835
vn -0.8301 -0.3927 0.3959
vn -0.8218 -0.4210 0.3840
vn -0.8290 -0.3964 0.3944
vn 0.2364 -0.9671 -0.0945
vn 0.1534 -0.9856 -0.0710
vn 0.9015 -0.3117 -0.3003
vn 0.8059 -0.3104 -0.5042
vn 0.8913 -0.3125 -0.3286
vn 0.0047 -0.9992 -0.0397
vn 0.8510 0.4583 -0.2566
vn 0.8791 0.3923 -0.2705
vn 0.8023 0.3812 -0.4594
vn 0.7756 0.4655 -0.4264
vn 0.8579 0.4896 -0.1561
vn 0.7590 0.5315 -0.3760
vn 0.8057 0.4510 -0.3840
vn 0.8446 0.4975 -0.1977
vn -0.8373 0.3188 0.4441
vn -0.7462 0.5241 0.4104
vn -0.7285 0.5617 0.3923
vn -0.8254 0.3709 0.4256
vn -0.3500 0.8665 0.3559
vn -0.4061 0.8262 0.3904
vn 0.9247 -0.3033 0.2301
vn 0.9204 -0.3067 0.2424
vn 0.9193 -0.3075 0.2455
vn -0.8940 -0.3798 -0.2378
vn -0.9186 -0.3473 0.1885
vn -0.9327 -0.3526 0.0758
vn -0.8342 -0.3961 -0.3838
vn 0.2582 -0.3864 -0.8855
vn 0.0566 -0.4038 -0.9131
vn 0.0817 -0.4026 -0.9117
vn -0.8839 -0.3316 0.3297
vn -0.8879 -0.3308 0.3198
vn -0.8832 -0.3317 0.3314
vn -0.7539 -0.4025 -0.5193
vn 0.5188 -0.4806 0.7070
vn 0.8866 -0.3366 -0.3172
vn 0.7656 -0.3508 -0.5393
vn 0.8419 -0.3453 -0.4147
vn 0.9427 -0.3204 0.0935
vn 0.9467 -0.3219 -0.0089
vn -0.3122 -0.5162 0.7975
vn -0.1253 -0.4052 -0.9056
vn -0.2587 0.9620 0.0874
vn -0.4245 0.8986 0.1112
vn -0.4683 0.8742 0.1282
vn -0.2515 0.9639 0.0872
vn -0.2615 0.8190 0.5107
vn -0.1276 0.8261 0.5489
vn -0.1167 0.7265 0.6772
vn -0.3518 0.7277 0.5888
vn -0.4029 0.8172 0.4121
vn -0.5856 0.6987 0.4110
vn 0.1804 0.8926 0.4131
vn 0.2586 0.9240 0.2818
vn 0.2605 0.9310 0.2557
vn 0.2180 0.9034 0.3691
vn -0.0305 0.9930 0.1145
vn 0.0943 0.9845 0.1481
vn -0.5167 0.8451 0.1369
vn -0.4828 0.8412 0.2436
vn -0.4875 0.8491 0.2032
vn -0.5098 0.8505 0.1293
vn 0.0157 0.8570 0.5151
vn 0.0596 0.7964 0.6019
vn 0.2415 0.9511 0.1925
vn 0.2501 0.9475 0.1993
vn -0.5200 0.7017 -0.4870
vn -0.0833 0.5601 0.8242
vn -0.4973 0.5405 0.6787
vn -0.7957 0.4974 0.3456
vn 0.6854 0.5902 0.4264
vn 0.8275 0.5609 0.0240
vn 0.8247 0.5591 -0.0855
vn 0.7618 0.5780 0.2925
vn 0.1873 0.7898 -0.5841
vn -0.8649 0.4783 -0.1526
vn -0.8681 0.4901 0.0788
vn -0.8707 0.4916 -0.0144
vn -0.8653 0.4778 -0.1515
vn 0.6067 0.5895 0.5334
vn 0.8075 0.5464 -0.2222
vn 0.8090 0.5462 -0.2172
vn -0.8713 0.4713 -0.1366
vn 0.0661 0.5649 0.8225
vn -0.8873 0.1084 0.4484
vn -0.8913 0.1126 0.4391
vn -0.3622 -0.0684 0.9296
vn 0.3685 -0.0567 0.9279
vn 0.9055 0.1379 0.4014
vn 0.9054 0.1344 0.4027
vn 0.0023 0.9534 0.3017
vn -0.3388 0.9022 0.2670
vn -0.2712 0.8768 0.3969
vn 0.0000 0.9121 0.4100
vn 0.2712 0.8768 0.3969
vn 0.3435 0.9065 0.2455
vn 0.3335 0.9413 0.0516
vn 0.0279 0.9960 -0.0848
vn -0.3352 0.9410 0.0475
vn 0.6990 0.5617 0.4426
vn 0.7180 0.6751 0.1693
vn 0.4685 0.7574 0.4547
vn 0.5737 0.6347 0.5178
vn 0.6449 0.4941 0.5831
vn 0.7269 0.5105 0.4593
vn 0.7912 0.5991 -0.1232
vn 0.7585 0.6389 -0.1284
vn 0.7836 0.6086 -0.1245
vn 0.7673 0.6355 -0.0858
vn 0.3779 0.8073 -0.4533
vn 0.4912 0.8403 -0.2294
vn 0.3367 0.6994 -0.6305
vn 0.3373 0.7001 -0.6293
vn -0.3474 0.8003 -0.4886
vn -0.3314 0.6834 -0.6505
vn -0.3316 0.6835 -0.6503
vn -0.5066 0.8261 -0.2468
vn -0.0000 0.8778 0.4790
vn -0.3822 0.8141 0.4372
vn -0.4685 0.7574 0.4547
vn -0.3189 0.8256 0.4656
vn 0.3189 0.8256 0.4656
vn 0.3822 0.8141 0.4372
vn 0.5790 0.7905 0.1999
vn -0.5978 0.7723 0.2147
vn -0.7855 0.6133 -0.0821
vn -0.7295 0.6622 0.1712
vn -0.7912 0.5991 -0.1232
vn -0.7836 0.6086 -0.1245
vn -0.7585 0.6389 -0.1284
vn -0.6990 0.5617 0.4426
vn -0.7269 0.5105 0.4593
vn -0.6449 0.4941 0.5831
vn -0.5737 0.6347 0.5178
vn 0.3036 0.6886 -0.6585
vn 0.3045 0.6874 -0.6594
vn 0.2962 0.6992 -0.6507
vn -0.3036 0.6886 -0.6585
vn -0.2962 0.6992 -0.6507
vn -0.3045 0.6874 -0.6594
vn -0.5124 0.5993 0.6151
vn -0.5747 0.4748 0.6666
vn 0.5124 0.5993 0.6151
vn 0.5747 0.4748 0.6666
usemtl Bag
s 1
f 100//1 34//2 63//3 111//4
f 1//5 45//6 59//7 17//8
f 1//5 17//8 49//9 28//10
f 100//1 107//11 55//12 34//2
f 101//13 33//14 55//15 107//16
f 2//17 28//18 49//19 20//20
f 2//17 20//20 53//21 29//22
f 101//13 108//23 56//24 33//14
f 102//25 32//26 62//27 110//28
f 3//29 44//30 61//31 23//32
f 3//29 23//32 51//33 30//34
f 102//25 109//35 57//36 32//26
f 103//37 31//38 57//39 109//39
f 4//40 30//34 51//33 26//41
f 4//40 26//41 47//42 16//43
f 103//37 106//44 54//44 31//38
f 5//45 15//46 58//47 43//48
f 5//45 43//48 60//49 37//50
f 5//45 37//50 50//51 25//52
f 5//45 25//52 46//53 15//46
f 6//54 25//52 50//51 24//55
f 6//56 24//56 57//56 31//56
f 6//57 31//57 54//57 27//57
f 6//54 27//58 46//53 25//52
f 7//59 37//50 60//49 42//60
f 7//61 42//62 62//63 32//64
f 7//61 32//64 57//65 24//65
f 7//59 24//55 50//51 37//50
f 8//66 19//67 48//68 18//69
f 8//70 18//71 55//71 33//72
f 8//70 33//72 56//73 21//73
f 8//66 21//74 52//75 19//67
f 9//76 35//77 58//47 41//78
f 9//79 41//80 63//81 34//82
f 9//79 34//82 55//83 18//83
f 9//76 18//69 48//68 35//77
f 10//84 15//46 46//53 27//58
f 10//85 27//86 54//86 40//87
f 10//85 40//87 63//81 41//80
f 10//84 41//78 58//47 15//46
f 11//88 22//89 52//75 21//74
f 11//90 21//91 56//91 39//92
f 11//90 39//92 62//63 42//62
f 11//88 42//60 60//49 22//89
f 12//93 35//77 48//68 19//67
f 12//93 19//67 52//75 22//89
f 12//93 22//89 60//49 43//48
f 12//93 43//48 58//47 35//77
f 104//94 39//95 56//96 108//97
f 13//98 29//99 53//100 38//101
f 13//98 38//101 61//31 44//30
f 104//94 110//28 62//27 39//95
f 105//102 40//103 54//104 106//105
f 14//106 16//43 47//42 36//107
f 14//106 36//107 59//7 45//6
f 105//102 111//4 63//3 40//103
f 51//108 23//109 66//110 72//108
f 17//111 59//112 74//113 64//114
f 53//115 20//116 65//117 73//115
f 36//118 47//119 70//119 68//120
f 49//121 17//111 64//114 71//121
f 26//122 51//122 72//122 67//122
f 38//123 53//124 73//124 69//125
f 59//112 36//118 68//120 74//113
f 23//109 61//126 75//127 66//110
f 47//128 26//128 67//128 70//128
f 61//126 38//123 69//125 75//127
f 20//116 49//129 71//129 65//117
f 67//130 72//131 84//132 79//133
f 73//134 65//135 77//136 85//137
f 69//138 73//134 85//137 81//139
f 64//140 74//141 86//142 76//143
f 70//144 67//130 79//133 82//145
f 66//146 75//147 87//148 78//149
f 75//147 69//138 81//139 87//148
f 71//150 64//140 76//143 83//151
f 68//152 70//144 82//145 80//153
f 72//131 66//146 78//149 84//132
f 65//135 71//150 83//151 77//136
f 74//141 68//152 80//153 86//142
f 79//154 84//154 96//154 91//154
f 85//137 77//136 89//155 97//156
f 81//139 85//137 97//156 93//157
f 76//158 86//159 98//160 88//161
f 82//162 79//162 91//162 94//162
f 78//163 87//164 99//165 90//166
f 87//164 81//139 93//157 99//165
f 83//167 76//158 88//161 95//167
f 80//168 82//169 94//169 92//168
f 84//170 78//163 90//166 96//170
f 77//136 83//151 95//171 89//155
f 86//159 80//168 92//168 98//160
f 14//172 45//6 111//4 105//102
f 14//172 105//102 106//105 16//173
f 13//98 44//30 110//28 104//94
f 13//98 104//94 108//97 29//99
f 4//174 16//174 106//174 103//174
f 4//175 103//175 109//175 30//175
f 3//176 30//177 109//35 102//25
f 3//176 102//25 110//28 44//30
f 2//17 29//22 108//23 101//13
f 2//17 101//13 107//16 28//18
f 1//5 28//10 107//11 100//1
f 1//5 100//1 111//4 45//6
usemtl Bag_Inside
f 112//178 121//179 141//180 122//181
f 112//178 122//181 142//182 123//183
f 112//178 123//183 144//184 124//185
f 112//178 124//185 143//186 121//179
f 113//187 127//188 147//189 137//190
f 113//187 137//190 151//191 135//192
f 113//193 135//194 152//194 138//195
f 113//193 138//195 148//196 127//188
f 114//197 124//185 144//184 130//198
f 114//197 130//198 148//199 128//200
f 114//201 128//202 145//203 129//204
f 114//201 129//204 143//186 124//185
f 115//205 122//181 141//180 132//206
f 115//205 132//206 146//207 126//208
f 115//205 126//209 147//189 131//210
f 115//205 131//210 142//182 122//181
f 116//211 123//183 142//182 131//210
f 116//211 131//210 147//189 127//188
f 116//211 127//188 148//196 130//198
f 116//211 130//198 144//184 123//183
f 117//212 121//179 143//186 129//204
f 117//212 129//204 145//213 125//214
f 117//212 125//214 146//207 132//206
f 117//212 132//206 141//180 121//179
f 118//215 125//214 145//213 139//216
f 118//215 139//216 149//217 133//217
f 118//218 133//219 150//220 140//221
f 118//218 140//221 146//207 125//214
f 119//222 128//200 148//199 138//223
f 119//222 138//223 152//224 136//224
f 119//225 136//226 149//226 139//227
f 119//225 139//227 145//203 128//202
f 120//228 126//208 146//207 140//221
f 120//228 140//221 150//220 134//229
f 120//230 134//231 151//191 137//190
f 120//230 137//190 147//189 126//209
