# Blender v2.79 (sub 0) OBJ File: 'Package_1.blend'
# www.blender.org
mtllib Package_1.mtl
o Package_1_Cube.262
v -0.092265 0.102800 -0.066761
v -0.067890 0.102800 0.092265
v -0.067890 0.122827 0.066761
v -0.067890 -0.004213 0.066761
v -0.067890 0.102800 -0.092265
v -0.067890 -0.004213 -0.066761
v -0.067890 0.122827 -0.066761
v -0.092265 0.102800 0.066761
v -0.092265 0.015815 0.066761
v -0.067890 0.015815 -0.092265
v -0.067890 0.015815 0.092265
v -0.092265 0.015815 -0.066761
v -0.086171 0.000794 0.066761
v -0.086171 0.102800 0.085889
v -0.086171 0.117820 -0.066761
v -0.086171 0.015815 -0.085889
v -0.067890 0.000794 -0.085889
v -0.067890 0.117820 0.085889
v -0.067890 0.117820 -0.085889
v -0.067890 0.000794 0.085889
v -0.086171 0.000794 -0.066761
v -0.086171 0.117820 0.066761
v -0.086171 0.015815 0.085889
v -0.086171 0.102800 -0.085889
v -0.081432 0.004688 0.080930
v -0.081432 0.113926 0.080930
v -0.081432 0.004688 -0.080930
v -0.081432 0.113926 -0.080930
v -0.034524 0.000137 0.063614
v -0.034524 0.099394 0.087915
v -0.034524 0.118478 -0.063614
v -0.034524 0.019220 -0.087915
v -0.034524 0.004908 -0.081840
v -0.034524 0.113707 0.081840
v -0.034524 0.118478 0.063614
v -0.034524 0.099394 -0.087915
v -0.034524 0.000137 -0.063614
v -0.034524 0.019220 0.087915
v -0.034524 0.113707 -0.081840
v -0.034524 0.004908 0.081840
v -0.029113 -0.001992 0.065154
v -0.038777 -0.001992 0.065154
v -0.029113 0.101061 0.090044
v -0.038777 0.101061 0.090044
v -0.029113 0.120606 -0.065154
v -0.038777 0.120606 -0.065154
v -0.029113 0.017554 -0.090044
v -0.038777 0.017554 -0.090044
v -0.029113 0.002895 -0.083821
v -0.038777 0.002895 -0.083821
v -0.029113 0.115720 0.083821
v -0.038777 0.115720 0.083821
v -0.038777 0.120606 0.065154
v -0.029113 0.120606 0.065154
v -0.038777 0.101061 -0.090044
v -0.029113 0.101061 -0.090044
v -0.038777 -0.001992 -0.065154
v -0.029113 -0.001992 -0.065154
v -0.038777 0.017554 0.090044
v -0.029113 0.017554 0.090044
v -0.038777 0.115720 -0.083821
v -0.029113 0.115720 -0.083821
v -0.038777 0.002895 0.083821
v -0.029113 0.002895 0.083821
v -0.064117 0.000049 -0.000000
v -0.064117 0.118565 -0.000000
v -0.087137 0.099651 -0.000000
v -0.087137 0.018963 -0.000000
v -0.081382 0.004778 -0.000000
v -0.081382 0.113837 -0.000000
v -0.032605 0.004157 -0.000000
v -0.032605 0.114457 -0.000000
v -0.065129 -0.004213 0.033381
v -0.065129 0.122827 0.033381
v -0.089503 0.015815 0.033381
v -0.083410 0.000794 0.033381
v -0.031762 0.000137 0.031807
v -0.031762 0.118478 0.031807
v -0.089503 0.102800 0.033381
v -0.083410 0.117820 0.033381
v -0.089503 0.102800 -0.033381
v -0.083410 0.117820 -0.033381
v -0.065129 -0.004213 -0.033381
v -0.065129 0.122827 -0.033381
v -0.089503 0.015815 -0.033381
v -0.083410 0.000794 -0.033381
v -0.031762 0.000137 -0.031807
v -0.031762 0.118478 -0.031807
v 0.184639 0.102800 -0.066761
v 0.160264 0.102800 0.092265
v 0.160264 0.122827 0.066761
v 0.160264 -0.004213 0.066761
v 0.160264 0.102800 -0.092265
v 0.160264 -0.004213 -0.066761
v 0.160264 0.122827 -0.066761
v 0.184639 0.102800 0.066761
v 0.184639 0.015815 0.066761
v 0.160264 0.015815 -0.092265
v 0.160264 0.015815 0.092265
v 0.184639 0.015815 -0.066761
v 0.178545 0.000794 0.066761
v 0.178545 0.102800 0.085889
v 0.178545 0.117820 -0.066761
v 0.178545 0.015815 -0.085889
v 0.160264 0.000794 -0.085889
v 0.160264 0.117820 0.085889
v 0.160264 0.117820 -0.085889
v 0.160264 0.000794 0.085889
v 0.178545 0.000794 -0.066761
v 0.178545 0.117820 0.066761
v 0.178545 0.015815 0.085889
v 0.178545 0.102800 -0.085889
v 0.173806 0.004688 0.080930
v 0.173806 0.113926 0.080930
v 0.173806 0.004688 -0.080930
v 0.173806 0.113926 -0.080930
v 0.042119 0.122827 0.066761
v 0.042119 -0.004213 0.066761
v 0.042119 0.102800 0.092265
v 0.042119 0.102800 -0.092265
v 0.042119 -0.004213 -0.066761
v 0.042119 0.122827 -0.066761
v 0.042119 0.015815 0.092265
v 0.042119 0.015815 -0.092265
v 0.042119 0.000794 -0.085889
v 0.042119 0.117820 -0.085889
v 0.042119 0.000794 0.085889
v 0.042119 0.117820 0.085889
v 0.126898 0.000137 0.063614
v 0.126898 0.099394 0.087915
v 0.126898 0.118478 -0.063614
v 0.126898 0.019220 -0.087915
v 0.126898 0.004908 -0.081840
v 0.126898 0.113707 0.081840
v 0.126898 0.118478 0.063614
v 0.126898 0.099394 -0.087915
v 0.126898 0.000137 -0.063614
v 0.126898 0.019220 0.087915
v 0.126898 0.113707 -0.081840
v 0.126898 0.004908 0.081840
v 0.121487 -0.001992 0.065154
v 0.131152 -0.001992 0.065154
v 0.121487 0.101061 0.090044
v 0.131152 0.101061 0.090044
v 0.121487 0.120606 -0.065154
v 0.131152 0.120606 -0.065154
v 0.121487 0.017554 -0.090044
v 0.131152 0.017554 -0.090044
v 0.121487 0.002895 -0.083821
v 0.131152 0.002895 -0.083821
v 0.121487 0.115720 0.083821
v 0.131152 0.115720 0.083821
v 0.131152 0.120606 0.065154
v 0.121487 0.120606 0.065154
v 0.131152 0.101061 -0.090044
v 0.121487 0.101061 -0.090044
v 0.131152 -0.001992 -0.065154
v 0.121487 -0.001992 -0.065154
v 0.131152 0.017554 0.090044
v 0.121487 0.017554 0.090044
v 0.131152 0.115720 -0.083821
v 0.121487 0.115720 -0.083821
v 0.131152 0.002895 0.083821
v 0.121487 0.002895 0.083821
v 0.156491 0.000049 -0.000000
v 0.156491 0.118565 -0.000000
v 0.179511 0.099651 -0.000000
v 0.179511 0.018963 -0.000000
v 0.173756 0.004778 -0.000000
v 0.173756 0.113837 -0.000000
v 0.042119 0.118565 -0.000000
v 0.042119 0.000049 -0.000000
v 0.124979 0.004157 -0.000000
v 0.124979 0.114457 -0.000000
v 0.157503 -0.004213 0.033381
v 0.157503 0.122827 0.033381
v 0.181877 0.015815 0.033381
v 0.175784 0.000794 0.033381
v 0.042119 0.122827 0.033381
v 0.042119 -0.004213 0.033381
v 0.124136 0.000137 0.031807
v 0.124136 0.118478 0.031807
v 0.181877 0.102800 0.033381
v 0.175784 0.117820 0.033381
v 0.181877 0.102800 -0.033381
v 0.175784 0.117820 -0.033381
v 0.157503 -0.004213 -0.033381
v 0.157503 0.122827 -0.033381
v 0.181877 0.015815 -0.033381
v 0.175784 0.000794 -0.033381
v 0.042119 0.122827 -0.033381
v 0.042119 -0.004213 -0.033381
v 0.124136 0.000137 -0.031807
v 0.124136 0.118478 -0.031807
v -0.067498 -0.005231 0.004576
v -0.067498 -0.005231 -0.005437
v -0.093283 0.103597 0.004576
v -0.093283 0.103597 -0.005437
v 0.159872 0.123845 0.004576
v 0.159872 0.123845 -0.005437
v 0.185657 0.015017 0.004576
v 0.185657 0.015017 -0.005437
v 0.179211 -0.000169 0.004576
v 0.179211 -0.000169 -0.005437
v -0.086837 0.118783 0.004576
v -0.086837 0.118783 -0.005437
v -0.067498 0.123845 -0.005437
v -0.067498 0.123845 0.004576
v 0.185657 0.103597 -0.005437
v 0.185657 0.103597 0.004576
v 0.159872 -0.005231 -0.005437
v 0.159872 -0.005231 0.004576
v -0.093283 0.015017 -0.005437
v -0.093283 0.015017 0.004576
v 0.179211 0.118783 -0.005437
v 0.179211 0.118783 0.004576
v -0.086837 -0.000169 -0.005437
v -0.086837 -0.000169 0.004576
vn -0.9273 0.1932 -0.3207
vn -0.9273 -0.1932 -0.3207
vn -0.9724 -0.2005 -0.1194
vn -0.9724 0.2005 -0.1194
vn -0.9769 -0.1964 0.0844
vn -0.9769 0.1964 0.0844
vn -0.9082 0.4019 -0.1170
vn -0.8503 0.4139 -0.3251
vn -0.3471 -0.2016 0.9159
vn -0.0998 -0.2140 0.9717
vn -0.0998 0.2140 0.9717
vn -0.3471 0.2016 0.9159
vn 0.0416 -0.1925 0.9804
vn 0.0416 0.1925 0.9804
vn -0.0951 0.4193 0.9028
vn -0.3494 0.4253 0.8349
vn 0.0434 0.9665 0.2530
vn 0.0421 0.9912 0.1256
vn -0.0774 0.9876 0.1367
vn -0.0632 0.9596 0.2741
vn -0.2842 0.9505 0.1253
vn -0.2992 0.9103 0.2859
vn -0.0652 -0.9957 -0.0659
vn -0.0774 -0.9876 0.1367
vn -0.2842 -0.9505 0.1253
vn -0.2634 -0.9618 -0.0742
vn -0.0632 -0.9596 0.2741
vn -0.2992 -0.9103 0.2859
vn 0.0458 0.3903 0.9195
vn -0.0998 0.2140 -0.9717
vn -0.3471 0.2016 -0.9159
vn -0.3494 0.4253 -0.8349
vn -0.0951 0.4193 -0.9028
vn -0.0774 -0.9876 -0.1367
vn -0.2842 -0.9505 -0.1253
vn -0.2992 -0.9103 -0.2859
vn -0.0632 -0.9596 -0.2741
vn 0.0434 -0.9665 -0.2530
vn 0.0421 -0.9912 -0.1256
vn 0.0326 0.9975 0.0626
vn 0.0421 0.9912 -0.1256
vn -0.0774 0.9876 -0.1367
vn -0.0652 0.9957 0.0659
vn -0.0632 0.9596 -0.2741
vn -0.2992 0.9103 -0.2859
vn -0.2842 0.9505 -0.1253
vn -0.2634 0.9618 0.0742
vn -0.9230 0.3745 0.0883
vn -0.9724 0.2005 0.1194
vn -0.9273 0.1932 0.3207
vn -0.8503 0.4139 0.3251
vn -0.9082 0.4019 0.1170
vn -0.9724 -0.2005 0.1194
vn -0.9082 -0.4019 0.1170
vn -0.8503 -0.4139 0.3251
vn -0.9273 -0.1932 0.3207
vn -0.9082 -0.4019 -0.1170
vn -0.9230 -0.3745 0.0883
vn -0.0998 -0.2140 -0.9717
vn -0.0951 -0.4193 -0.9028
vn -0.3494 -0.4253 -0.8349
vn -0.3471 -0.2016 -0.9159
vn -0.0951 -0.4193 0.9028
vn 0.0458 -0.3903 0.9195
vn -0.3494 -0.4253 0.8349
vn -0.8503 -0.4139 -0.3251
vn -0.0031 -0.2031 0.9791
vn -0.0033 -0.3907 0.9205
vn 0.0416 -0.1925 -0.9804
vn -0.0031 -0.2031 -0.9791
vn -0.0033 -0.3907 -0.9205
vn 0.0458 -0.3903 -0.9195
vn 0.0434 0.9665 -0.2530
vn -0.0030 0.9916 -0.1291
vn -0.0030 0.9674 -0.2532
vn 0.0326 -0.9975 0.0626
vn -0.0030 -0.9916 -0.1291
vn -0.0028 -0.9980 0.0630
vn 0.0458 0.3903 -0.9195
vn -0.0033 0.3907 -0.9205
vn -0.0031 0.2031 -0.9791
vn 0.0416 0.1925 -0.9804
vn 0.0434 -0.9665 0.2530
vn 0.0421 -0.9912 0.1256
vn -0.0030 -0.9916 0.1291
vn -0.0030 -0.9674 0.2532
vn -0.0652 -0.9957 0.0659
vn -0.0028 0.9980 0.0630
vn -0.0030 -0.9674 -0.2532
vn -0.0033 0.3907 0.9205
vn -0.0031 0.2031 0.9791
vn -0.0030 0.9674 0.2532
vn -0.0030 0.9916 0.1291
vn -0.0028 0.9980 -0.0630
vn -0.0027 1.0000 0.0000
vn 0.0368 0.9993 0.0000
vn 0.0326 0.9975 -0.0626
vn -0.0676 -0.9977 -0.0000
vn 0.0368 -0.9993 0.0000
vn 0.0326 -0.9975 -0.0626
vn -0.0027 -1.0000 0.0000
vn -0.0028 -0.9980 -0.0630
vn -0.9769 -0.1964 -0.0844
vn -0.9833 -0.1820 0.0000
vn -0.9266 -0.3759 0.0000
vn -0.9230 -0.3745 -0.0883
vn -0.9230 0.3745 -0.0883
vn -0.9266 0.3759 -0.0000
vn -0.9833 0.1820 0.0000
vn -0.9769 0.1964 -0.0844
vn -0.2634 0.9618 -0.0742
vn -0.0652 0.9957 -0.0659
vn -0.0676 0.9977 0.0000
vn -0.2642 0.9645 0.0000
vn -0.2642 -0.9645 -0.0000
vn -0.2634 -0.9618 0.0742
vn 0.9273 0.1932 -0.3207
vn 0.9724 0.2005 -0.1194
vn 0.9724 -0.2005 -0.1194
vn 0.9273 -0.1932 -0.3207
vn 0.9769 -0.1964 0.0844
vn 0.9769 0.1964 0.0844
vn 0.8503 0.4139 -0.3251
vn 0.9082 0.4019 -0.1170
vn 0.3471 -0.2016 0.9159
vn 0.3471 0.2016 0.9159
vn 0.0998 0.2140 0.9717
vn 0.0998 -0.2140 0.9717
vn -0.0447 -0.1927 0.9802
vn -0.0447 0.1927 0.9802
vn 0.3494 0.4253 0.8349
vn 0.0951 0.4193 0.9028
vn -0.0466 0.9664 0.2530
vn 0.0632 0.9596 0.2741
vn 0.0774 0.9876 0.1367
vn -0.0450 0.9910 0.1257
vn 0.2992 0.9103 0.2859
vn 0.2842 0.9505 0.1253
vn 0.0652 -0.9957 -0.0659
vn 0.2634 -0.9618 -0.0742
vn 0.2842 -0.9505 0.1253
vn 0.0774 -0.9876 0.1367
vn 0.2992 -0.9103 0.2859
vn 0.0632 -0.9596 0.2741
vn -0.0492 0.3903 0.9194
vn 0.0998 0.2140 -0.9717
vn 0.0951 0.4193 -0.9028
vn 0.3494 0.4253 -0.8349
vn 0.3471 0.2016 -0.9159
vn 0.0774 -0.9876 -0.1367
vn 0.0632 -0.9596 -0.2741
vn 0.2992 -0.9103 -0.2859
vn 0.2842 -0.9505 -0.1253
vn -0.0466 -0.9664 -0.2530
vn -0.0450 -0.9910 -0.1257
vn -0.0355 0.9974 0.0625
vn 0.0652 0.9957 0.0659
vn 0.0774 0.9876 -0.1367
vn -0.0450 0.9910 -0.1257
vn 0.2842 0.9505 -0.1253
vn 0.2992 0.9103 -0.2859
vn 0.0632 0.9596 -0.2741
vn 0.2634 0.9618 0.0742
vn 0.9230 0.3745 0.0883
vn 0.9724 0.2005 0.1194
vn 0.9082 0.4019 0.1170
vn 0.8503 0.4139 0.3251
vn 0.9273 0.1932 0.3207
vn 0.9724 -0.2005 0.1194
vn 0.9273 -0.1932 0.3207
vn 0.8503 -0.4139 0.3251
vn 0.9082 -0.4019 0.1170
vn 0.9230 -0.3745 0.0883
vn 0.9082 -0.4019 -0.1170
vn 0.0998 -0.2140 -0.9717
vn 0.3471 -0.2016 -0.9159
vn 0.3494 -0.4253 -0.8349
vn 0.0951 -0.4193 -0.9028
vn -0.0492 -0.3903 0.9194
vn 0.0951 -0.4193 0.9028
vn 0.3494 -0.4253 0.8349
vn 0.8503 -0.4139 -0.3251
vn -0.0447 -0.1927 -0.9802
vn -0.0492 -0.3903 -0.9194
vn -0.0466 0.9664 -0.2530
vn -0.0355 -0.9974 0.0625
vn -0.0492 0.3903 -0.9194
vn -0.0447 0.1927 -0.9802
vn -0.0466 -0.9664 0.2530
vn -0.0450 -0.9910 0.1257
vn 0.0652 -0.9957 0.0659
vn -0.0355 0.9974 -0.0625
vn -0.0395 0.9992 0.0000
vn -0.0355 -0.9974 -0.0625
vn -0.0395 -0.9992 0.0000
vn 0.0676 -0.9977 -0.0000
vn 0.9769 -0.1964 -0.0844
vn 0.9230 -0.3745 -0.0883
vn 0.9266 -0.3759 0.0000
vn 0.9833 -0.1820 0.0000
vn 0.9230 0.3745 -0.0883
vn 0.9769 0.1964 -0.0844
vn 0.9833 0.1820 0.0000
vn 0.9266 0.3759 0.0000
vn 0.2634 0.9618 -0.0742
vn 0.2642 0.9645 -0.0000
vn 0.0676 0.9977 -0.0000
vn 0.0652 0.9957 -0.0659
vn 0.2634 -0.9618 0.0742
vn 0.2642 -0.9645 -0.0000
vn 0.0000 -0.1994 -0.9799
vn 0.0000 0.1994 -0.9799
vn 0.0000 -0.9674 0.2532
vn 0.0000 -0.9918 0.1277
vn 0.0000 0.3907 -0.9205
vn 0.0000 -0.9918 -0.1277
vn 0.0000 0.9674 -0.2532
vn 0.0000 0.9918 -0.1277
vn 0.0000 -0.3907 -0.9205
vn 0.0000 -0.1994 0.9799
vn 0.0000 -0.3907 0.9205
vn 0.0000 0.9918 0.1277
vn 0.0000 -0.9674 -0.2532
vn 0.0000 0.3907 0.9205
vn 0.0000 0.1994 0.9799
vn 0.0000 0.9674 0.2532
vn -1.0000 0.0000 0.0000
vn 1.0000 -0.0000 0.0000
vn 0.9799 -0.1994 0.0000
vn 0.9799 0.1994 0.0000
vn -0.2532 -0.9674 0.0000
vn -0.1277 -0.9918 0.0000
vn 0.9205 0.3907 0.0000
vn 0.1277 -0.9918 0.0000
vn 0.2532 0.9674 0.0000
vn 0.1277 0.9918 0.0000
vn 0.9205 -0.3907 0.0000
vn -0.9799 -0.1994 0.0000
vn -0.9205 -0.3907 0.0000
vn -0.1277 0.9918 0.0000
vn 0.2532 -0.9674 0.0000
vn -0.9205 0.3907 0.0000
vn -0.9799 0.1994 0.0000
vn -0.2532 0.9674 0.0000
vn 0.0000 0.0000 -1.0000
vn -0.0000 0.0000 1.0000
usemtl Bag
s 1
f 24//1 16//2 12//3 1//4
f 85//5 81//6 1//4 12//3
f 1//4 15//7 28//8 24//1
f 23//9 11//10 2//11 14//12
f 38//13 30//14 2//11 11//10
f 2//11 18//15 26//16 14//12
f 34//17 35//18 3//19 18//20
f 3//19 22//21 26//22 18//20
f 73//23 4//24 13//25 76//26
f 4//24 20//27 25//28 13//25
f 34//29 18//15 2//11 30//14
f 5//30 24//31 28//32 19//33
f 6//34 21//35 27//36 17//37
f 33//38 37//39 6//34 17//37
f 88//40 31//41 7//42 84//43
f 7//42 19//44 28//45 15//46
f 82//47 84//43 7//42 15//46
f 82//48 15//7 1//4 81//6
f 8//49 14//50 26//51 22//52
f 9//53 13//54 25//55 23//56
f 23//56 14//50 8//49 9//53
f 85//5 12//3 21//57 86//58
f 10//59 17//60 27//61 16//62
f 24//31 5//30 10//59 16//62
f 38//13 11//10 20//63 40//64
f 11//10 23//9 25//65 20//63
f 12//3 16//2 27//66 21//57
f 123//67 38//13 40//64 127//68
f 32//69 124//70 125//71 33//72
f 39//73 31//41 122//74 126//75
f 87//76 37//39 121//77 192//78
f 39//79 126//80 120//81 36//82
f 40//83 29//84 118//85 127//86
f 10//59 5//30 36//82 32//69
f 20//27 4//24 29//84 40//83
f 19//33 39//79 36//82 5//30
f 83//87 6//34 37//39 87//76
f 19//44 7//42 31//41 39//73
f 10//59 32//69 33//72 17//60
f 191//88 122//74 31//41 88//40
f 125//89 121//77 37//39 33//38
f 128//90 34//29 30//14 119//91
f 128//92 117//93 35//18 34//17
f 123//67 119//91 30//14 38//13
f 32//69 36//82 120//81 124//70
f 179//94 171//95 72//96 78//97
f 73//23 65//98 71//99 77//100
f 77//100 71//99 172//101 180//102
f 75//103 68//104 69//105 76//106
f 80//107 70//108 67//109 79//110
f 80//111 74//112 66//113 70//114
f 78//97 72//96 66//113 74//112
f 83//87 65//98 69//115 86//116
f 75//103 79//110 67//109 68//104
f 9//53 8//49 79//110 75//103
f 35//18 78//97 74//112 3//19
f 22//21 3//19 74//112 80//111
f 22//52 80//107 79//110 8//49
f 9//53 75//103 76//106 13//54
f 29//84 77//100 180//102 118//85
f 4//24 73//23 77//100 29//84
f 117//93 179//94 78//97 35//18
f 65//98 73//23 76//26 69//115
f 6//34 83//87 86//116 21//35
f 171//95 191//88 88//40 72//96
f 65//98 83//87 87//76 71//99
f 71//99 87//76 192//78 172//101
f 68//104 85//5 86//58 69//105
f 70//108 82//48 81//6 67//109
f 70//114 66//113 84//43 82//47
f 72//96 88//40 84//43 66//113
f 68//104 67//109 81//6 85//5
f 112//117 89//118 100//119 104//120
f 189//121 100//119 89//118 185//122
f 89//118 112//117 116//123 103//124
f 111//125 102//126 90//127 99//128
f 138//129 99//128 90//127 130//130
f 90//127 102//126 114//131 106//132
f 134//133 106//134 91//135 135//136
f 91//135 106//134 114//137 110//138
f 175//139 178//140 101//141 92//142
f 92//142 101//141 113//143 108//144
f 134//145 130//130 90//127 106//132
f 93//146 107//147 116//148 112//149
f 94//150 105//151 115//152 109//153
f 133//154 105//151 94//150 137//155
f 194//156 188//157 95//158 131//159
f 95//158 103//160 116//161 107//162
f 186//163 103//160 95//158 188//157
f 186//164 185//122 89//118 103//124
f 96//165 110//166 114//167 102//168
f 97//169 111//170 113//171 101//172
f 111//170 97//169 96//165 102//168
f 189//121 190//173 109//174 100//119
f 98//175 104//176 115//177 105//178
f 112//149 104//176 98//175 93//146
f 138//129 140//179 108//180 99//128
f 99//128 108//180 113//181 111//125
f 100//119 109//174 115//182 104//120
f 123//67 127//68 140//179 138//129
f 132//183 133//184 125//71 124//70
f 139//185 126//75 122//74 131//159
f 193//186 192//78 121//77 137//155
f 139//187 136//188 120//81 126//80
f 140//189 127//86 118//85 129//190
f 98//175 132//183 136//188 93//146
f 108//144 140//189 129//190 92//142
f 107//147 93//146 136//188 139//187
f 187//191 193//186 137//155 94//150
f 107//162 139//185 131//159 95//158
f 98//175 105//178 133//184 132//183
f 191//88 194//156 131//159 122//74
f 125//89 133//154 137//155 121//77
f 128//90 119//91 130//130 134//145
f 128//92 134//133 135//136 117//93
f 123//67 138//129 130//130 119//91
f 132//183 124//70 120//81 136//188
f 179//94 182//192 174//193 171//95
f 175//139 181//194 173//195 165//196
f 181//194 180//102 172//101 173//195
f 177//197 178//198 169//199 168//200
f 184//201 183//202 167//203 170//204
f 184//205 170//206 166//207 176//208
f 182//192 176//208 166//207 174//193
f 187//191 190//209 169//210 165//196
f 177//197 168//200 167//203 183//202
f 97//169 177//197 183//202 96//165
f 135//136 91//135 176//208 182//192
f 110//138 184//205 176//208 91//135
f 110//166 96//165 183//202 184//201
f 97//169 101//172 178//198 177//197
f 129//190 118//85 180//102 181//194
f 92//142 129//190 181//194 175//139
f 117//93 135//136 182//192 179//94
f 165//196 169//210 178//140 175//139
f 94//150 109//153 190//209 187//191
f 171//95 174//193 194//156 191//88
f 165//196 173//195 193//186 187//191
f 173//195 172//101 192//78 193//186
f 168//200 169//199 190//173 189//121
f 170//204 167//203 185//122 186//164
f 170//206 186//163 188//157 166//207
f 174//193 166//207 188//157 194//156
f 168//200 189//121 185//122 167//203
usemtl Leather
f 48//211 55//212 56//212 47//211
f 63//213 42//214 41//214 64//213
f 61//215 62//215 56//212 55//212
f 42//214 57//216 58//216 41//214
f 61//217 46//218 45//218 62//217
f 48//211 47//211 49//219 50//219
f 60//220 59//220 63//221 64//221
f 54//222 45//218 46//218 53//222
f 49//223 58//216 57//216 50//223
f 51//224 52//224 44//225 43//225
f 51//226 54//222 53//222 52//226
f 60//220 43//225 44//225 59//220
f 48//227 50//227 57//227 42//227 63//227 59//227 44//227 52//227 53//227 46//227 61//227 55//227
f 47//228 56//228 62//228 45//228 54//228 51//228 43//228 60//228 64//228 41//228 58//228 49//228
f 148//211 147//211 156//212 155//212
f 163//213 164//213 141//214 142//214
f 161//215 155//212 156//212 162//215
f 142//214 141//214 158//216 157//216
f 161//217 162//217 145//218 146//218
f 148//211 150//219 149//219 147//211
f 160//220 164//221 163//221 159//220
f 154//222 153//222 146//218 145//218
f 149//223 150//223 157//216 158//216
f 151//224 143//225 144//225 152//224
f 151//226 152//226 153//222 154//222
f 160//220 159//220 144//225 143//225
f 148//228 155//228 161//228 146//228 153//228 152//228 144//228 159//228 163//228 142//228 157//228 150//228
f 147//227 149//227 158//227 141//227 164//227 160//227 143//227 151//227 154//227 145//227 162//227 156//227
f 202//229 209//230 210//230 201//229
f 217//231 196//232 195//232 218//231
f 215//233 216//233 210//230 209//230
f 196//232 211//234 212//234 195//232
f 215//235 200//236 199//236 216//235
f 202//229 201//229 203//237 204//237
f 214//238 213//238 217//239 218//239
f 208//240 199//236 200//236 207//240
f 203//241 212//234 211//234 204//241
f 205//242 206//242 198//243 197//243
f 205//244 208//240 207//240 206//244
f 214//238 197//243 198//243 213//238
f 202//245 204//245 211//245 196//245 217//245 213//245 198//245 206//245 207//245 200//245 215//245 209//245
f 201//246 210//246 216//246 199//246 208//246 205//246 197//246 214//246 218//246 195//246 212//246 203//246
