# Blender v2.79 (sub 0) OBJ File: 'Rock_2.blend'
# www.blender.org
mtllib Rock_2.mtl
o Rock_2_Cube.396
v -0.035700 0.032765 0.031461
v -0.028491 0.032765 0.022215
v -0.110787 0.036768 -0.007513
v -0.097605 0.032749 -0.042376
v -0.055540 0.036768 -0.034916
v -0.092329 0.038784 0.026129
v -0.063361 0.036768 0.030419
v -0.034104 0.035743 -0.018868
v -0.031076 -0.000575 0.037588
v -0.021324 -0.000575 0.019147
v -0.125113 -0.000575 -0.008647
v -0.103762 -0.000575 -0.049110
v -0.053571 -0.000575 -0.044132
v -0.101210 -0.000575 0.034918
v -0.063698 -0.000575 0.040473
v -0.026298 -0.001601 -0.030801
v 0.102731 0.125610 0.023104
v 0.107405 0.125610 0.012351
v 0.020293 0.140550 0.004101
v 0.024358 0.125553 -0.032948
v 0.066954 0.140550 -0.036222
v 0.046563 0.148073 0.032072
v 0.075685 0.140550 0.028997
v 0.091716 0.136723 -0.026032
v 0.108738 0.001182 0.027883
v 0.113579 0.001182 0.007592
v 0.006137 0.001182 0.006578
v 0.016715 0.001182 -0.037933
v 0.066560 0.001182 -0.045638
v 0.040156 0.001182 0.042799
v 0.077868 0.001182 0.038817
v 0.096298 -0.002645 -0.039535
vn -0.0419 0.9955 -0.0845
vn 0.0575 0.9983 0.0069
vn 0.1284 0.9897 0.0626
vn 0.0000 -1.0000 -0.0000
vn -0.0153 -0.9999 -0.0018
vn 0.0078 -0.9998 0.0155
vn -0.1343 0.2516 0.9585
vn -0.8398 0.2993 0.4530
vn 0.0447 0.2255 0.9732
vn -0.8623 0.2957 -0.4111
vn 0.9677 0.2278 -0.1077
vn 0.5024 0.2958 -0.8124
vn 0.1215 0.2117 -0.9698
vn 0.8400 0.1721 0.5146
vn -0.2179 0.9428 -0.2521
vn 0.2096 0.9774 -0.0281
vn 0.4645 0.8804 0.0950
vn -0.0569 -0.9984 0.0076
vn 0.0427 -0.9979 0.0488
vn 0.1125 0.0695 0.9912
vn -0.7312 0.0838 0.6770
vn 0.2932 0.0619 0.9541
vn -0.9781 0.0827 -0.1908
vn 0.9330 0.0626 -0.3544
vn 0.2961 0.0827 -0.9516
vn -0.1270 0.0579 -0.9902
vn 0.9550 0.0468 0.2927
usemtl Stone_Dark
s off
f 5//1 4//1 3//1 6//1
f 8//2 5//2 6//2 7//2
f 2//3 8//3 7//3 1//3
f 13//4 14//4 11//4 12//4
f 16//5 15//5 14//5 13//5
f 10//6 9//6 15//6 16//6
f 6//7 14//7 15//7 7//7
f 3//8 11//8 14//8 6//8
f 7//9 15//9 9//9 1//9
f 4//10 12//10 11//10 3//10
f 2//11 10//11 16//11 8//11
f 8//12 16//12 13//12 5//12
f 5//13 13//13 12//13 4//13
f 1//14 9//14 10//14 2//14
f 21//15 20//15 19//15 22//15
f 24//16 21//16 22//16 23//16
f 18//17 24//17 23//17 17//17
f 29//4 30//4 27//4 28//4
f 32//18 31//18 30//18 29//18
f 26//19 25//19 31//19 32//19
f 22//20 30//20 31//20 23//20
f 19//21 27//21 30//21 22//21
f 23//22 31//22 25//22 17//22
f 20//23 28//23 27//23 19//23
f 18//24 26//24 32//24 24//24
f 24//25 32//25 29//25 21//25
f 21//26 29//26 28//26 20//26
f 17//27 25//27 26//27 18//27
