# Blender v2.79 (sub 0) OBJ File: 'Window_2.blend'
# www.blender.org
mtllib Window_2.mtl
o Window_2_Cylinder.022
v 0.155741 -0.074510 0.113857
v -0.155741 -0.074510 0.113857
v 0.155741 0.116846 0.113857
v -0.155741 0.116846 0.113857
v 0.083308 0.209544 0.113857
v -0.083308 0.209544 0.113857
v -0.158821 0.081281 0.128586
v 0.158821 0.081281 0.128586
v -0.158821 0.081281 0.088231
v 0.158821 0.081281 0.088231
v -0.158821 0.057562 0.128586
v 0.158821 0.057562 0.128586
v -0.158821 0.057562 0.088231
v 0.158821 0.057562 0.088231
v -0.014183 -0.083283 0.125668
v -0.014183 0.214067 0.125668
v -0.014183 -0.083283 0.085313
v -0.014183 0.214067 0.085313
v 0.014183 -0.083283 0.125668
v 0.014183 0.214067 0.125668
v 0.014183 -0.083283 0.085313
v 0.014183 0.214067 0.085313
v 0.179847 0.077646 0.135066
v 0.179847 0.077646 0.010402
v 0.155752 0.167569 0.135066
v 0.155752 0.167569 0.010402
v 0.089923 0.233398 0.135066
v 0.089923 0.233398 0.010402
v 0.000000 0.257492 0.135066
v 0.000000 0.257492 0.010402
v -0.089923 0.233398 0.135066
v -0.089923 0.233398 0.010402
v -0.155752 0.167569 0.135066
v -0.155752 0.167569 0.010402
v -0.179847 0.077646 0.135066
v -0.179847 0.077646 0.010402
v 0.179847 -0.080093 0.135066
v 0.179847 -0.080093 0.010402
v -0.179847 -0.080093 0.135066
v -0.179847 -0.080093 0.010402
v 0.136544 0.066295 0.135066
v 0.136544 0.066295 0.010402
v 0.116357 0.141632 0.135066
v 0.116357 0.141632 0.010402
v 0.067180 0.190810 0.135066
v 0.067180 0.190810 0.010402
v 0.000000 0.208811 0.135066
v 0.000000 0.208811 0.010402
v -0.067180 0.190810 0.135066
v -0.067180 0.190810 0.010402
v -0.116357 0.141632 0.135066
v -0.116357 0.141632 0.010402
v -0.136544 0.066296 0.135066
v -0.136544 0.066296 0.010402
v 0.136544 -0.080093 0.135066
v 0.136544 -0.080093 0.010402
v -0.136544 -0.080093 0.135066
v -0.136544 -0.080093 0.010402
v 0.221604 -0.116740 0.126952
v 0.221604 -0.116740 -0.006421
v -0.221604 -0.116740 0.126952
v -0.221604 -0.116740 -0.006421
v 0.223506 -0.078348 0.146745
v 0.223506 -0.078348 -0.006421
v -0.223506 -0.078348 0.146745
v -0.223506 -0.078348 -0.006421
vn -0.0000 0.0000 1.0000
vn -0.0000 1.0000 0.0000
vn 0.0000 -1.0000 0.0000
vn -1.0000 0.0000 0.0000
vn 1.0000 0.0000 0.0000
vn 0.9659 0.2588 -0.0000
vn 0.7071 0.7071 -0.0000
vn 0.2588 0.9659 0.0000
vn -0.2588 0.9659 0.0000
vn -0.7071 0.7071 0.0000
vn -0.9659 0.2588 0.0000
vn -0.9659 -0.2588 0.0000
vn -0.7071 -0.7071 0.0000
vn -0.2588 -0.9659 0.0000
vn 0.2588 -0.9659 -0.0000
vn 0.7071 -0.7071 -0.0000
vn 0.9659 -0.2588 -0.0000
vn 0.9988 -0.0495 -0.0000
vn -0.0000 -0.4582 0.8888
vn -0.9988 -0.0495 0.0000
usemtl Windows
s off
f 2//1 1//1 3//1 4//1
f 4//1 3//1 5//1 6//1
usemtl Wood_Light
f 7//2 8//2 10//2 9//2
f 13//3 14//3 12//3 11//3
f 11//1 12//1 8//1 7//1
f 9//4 13//4 11//4 7//4
f 14//5 10//5 8//5 12//5
f 15//4 16//4 18//4 17//4
f 21//5 22//5 20//5 19//5
f 19//1 20//1 16//1 15//1
f 17//3 21//3 19//3 15//3
f 22//2 18//2 16//2 20//2
usemtl Wood
f 23//6 24//6 26//6 25//6
f 25//7 26//7 28//7 27//7
f 27//8 28//8 30//8 29//8
f 29//9 30//9 32//9 31//9
f 31//10 32//10 34//10 33//10
f 33//11 34//11 36//11 35//11
f 35//4 36//4 40//4 39//4
f 24//5 23//5 37//5 38//5
f 41//12 43//12 44//12 42//12
f 43//13 45//13 46//13 44//13
f 45//14 47//14 48//14 46//14
f 47//15 49//15 50//15 48//15
f 49//16 51//16 52//16 50//16
f 51//17 53//17 54//17 52//17
f 53//5 57//5 58//5 54//5
f 42//4 56//4 55//4 41//4
f 23//1 25//1 43//1 41//1
f 25//1 27//1 45//1 43//1
f 27//1 29//1 47//1 45//1
f 29//1 31//1 49//1 47//1
f 31//1 33//1 51//1 49//1
f 33//1 35//1 53//1 51//1
f 35//1 39//1 57//1 53//1
f 37//1 23//1 41//1 55//1
usemtl Stone
f 59//3 61//3 62//3 60//3
f 63//2 64//2 66//2 65//2
f 59//18 60//18 64//18 63//18
f 61//19 59//19 63//19 65//19
f 61//20 65//20 66//20 62//20
